<svg xmlns="http://www.w3.org/2000/svg" xmlns:xlink="http://www.w3.org/1999/xlink" xmlns:inkscape="http://www.inkscape.org/namespaces/inkscape" version="1.1" width="878.9648" height="397.8" viewBox="0 0 878.9648 397.8">
<defs>
<clipPath id="clip_1">
<path transform="matrix(1,0,0,-1,0,397.8)" d="M52.279729 54.03203H416.66075V349.02003H52.279729Z"/>
</clipPath>
<clipPath id="clip_2">
<path transform="matrix(1,0,0,-1,0,397.8)" d="M52.279729 54.03203H416.66075V349.02003H52.279729Z"/>
</clipPath>
<clipPath id="clip_3">
<path transform="matrix(1,0,0,-1,0,397.8)" d="M52.279729 54.03203H416.66075V349.02003H52.279729Z"/>
</clipPath>
<clipPath id="clip_4">
<path transform="matrix(1,0,0,-1,0,397.8)" d="M52.279729 54.03203H416.66075V349.02003H52.279729Z"/>
</clipPath>
<clipPath id="clip_5">
<path transform="matrix(1,0,0,-1,0,397.8)" d="M52.279729 54.03203H416.66075V349.02003H52.279729Z"/>
</clipPath>
<clipPath id="clip_6">
<path transform="matrix(1,0,0,-1,0,397.8)" d="M52.279729 54.03203H416.66075V349.02003H52.279729Z"/>
</clipPath>
<clipPath id="clip_7">
<path transform="matrix(1,0,0,-1,0,397.8)" d="M52.279729 54.03203H416.66075V349.02003H52.279729Z"/>
</clipPath>
<clipPath id="clip_8">
<path transform="matrix(1,0,0,-1,0,397.8)" d="M52.279729 54.03203H416.66075V349.02003H52.279729Z"/>
</clipPath>
<clipPath id="clip_9">
<path transform="matrix(1,0,0,-1,0,397.8)" d="M52.279729 54.03203H416.66075V349.02003H52.279729Z"/>
</clipPath>
<clipPath id="clip_10">
<path transform="matrix(1,0,0,-1,0,397.8)" d="M52.279729 54.03203H416.66075V349.02003H52.279729Z"/>
</clipPath>
<clipPath id="clip_11">
<path transform="matrix(1,0,0,-1,0,397.8)" d="M52.279729 54.03203H416.66075V349.02003H52.279729Z"/>
</clipPath>
<clipPath id="clip_12">
<path transform="matrix(1,0,0,-1,0,397.8)" d="M52.279729 54.03203H416.66075V349.02003H52.279729Z"/>
</clipPath>
<clipPath id="clip_13">
<path transform="matrix(1,0,0,-1,0,397.8)" d="M52.279729 54.03203H416.66075V349.02003H52.279729Z"/>
</clipPath>
<clipPath id="clip_14">
<path transform="matrix(1,0,0,-1,68.8425,153.75908)" d="M-8-8H8V8H-8Z"/>
</clipPath>
<clipPath id="clip_15">
<path transform="matrix(1,0,0,-1,110.249439,186.46285)" d="M-8-8H8V8H-8Z"/>
</clipPath>
<clipPath id="clip_16">
<path transform="matrix(1,0,0,-1,151.65637,258.41114)" d="M-8-8H8V8H-8Z"/>
</clipPath>
<clipPath id="clip_17">
<path transform="matrix(1,0,0,-1,193.06331,238.78888)" d="M-8-8H8V8H-8Z"/>
</clipPath>
<clipPath id="clip_18">
<path transform="matrix(1,0,0,-1,234.47025,212.62587)" d="M-8-8H8V8H-8Z"/>
</clipPath>
<clipPath id="clip_19">
<path transform="matrix(1,0,0,-1,275.87718,179.9221)" d="M-8-8H8V8H-8Z"/>
</clipPath>
<clipPath id="clip_20">
<path transform="matrix(1,0,0,-1,317.2841,153.7591)" d="M-8-8H8V8H-8Z"/>
</clipPath>
<clipPath id="clip_21">
<path transform="matrix(1,0,0,-1,358.691,134.13684)" d="M-8-8H8V8H-8Z"/>
</clipPath>
<clipPath id="clip_22">
<path transform="matrix(1,0,0,-1,400.09794,107.97383)" d="M-8-8H8V8H-8Z"/>
</clipPath>
<clipPath id="clip_23">
<path transform="matrix(1,0,0,-1,0,397.8)" d="M52.279729 54.03203H416.66075V349.02003H52.279729Z"/>
</clipPath>
<clipPath id="clip_24">
<path transform="matrix(1,0,0,-1,68.8425,330.3594)" d="M-8-8H8V8H-8Z"/>
</clipPath>
<clipPath id="clip_25">
<path transform="matrix(1,0,0,-1,110.249439,284.57414)" d="M-8-8H8V8H-8Z"/>
</clipPath>
<clipPath id="clip_26">
<path transform="matrix(1,0,0,-1,151.65637,251.87036)" d="M-8-8H8V8H-8Z"/>
</clipPath>
<clipPath id="clip_27">
<path transform="matrix(1,0,0,-1,193.06331,219.1666)" d="M-8-8H8V8H-8Z"/>
</clipPath>
<clipPath id="clip_28">
<path transform="matrix(1,0,0,-1,234.47025,193.00359)" d="M-8-8H8V8H-8Z"/>
</clipPath>
<clipPath id="clip_29">
<path transform="matrix(1,0,0,-1,275.87718,166.84058)" d="M-8-8H8V8H-8Z"/>
</clipPath>
<clipPath id="clip_30">
<path transform="matrix(1,0,0,-1,317.2841,140.67757)" d="M-8-8H8V8H-8Z"/>
</clipPath>
<clipPath id="clip_31">
<path transform="matrix(1,0,0,-1,358.691,121.055309)" d="M-8-8H8V8H-8Z"/>
</clipPath>
<clipPath id="clip_32">
<path transform="matrix(1,0,0,-1,400.09794,101.433048)" d="M-8-8H8V8H-8Z"/>
</clipPath>
<clipPath id="clip_33">
<path transform="matrix(1,0,0,-1,0,397.8)" d="M52.279729 54.03203H416.66075V349.02003H52.279729Z"/>
</clipPath>
<clipPath id="clip_34">
<path transform="matrix(1,0,0,-1,68.8425,284.57417)" d="M-8-8H8V8H-8Z"/>
</clipPath>
<clipPath id="clip_35">
<path transform="matrix(1,0,0,-1,110.249439,271.49266)" d="M-8-8H8V8H-8Z"/>
</clipPath>
<clipPath id="clip_36">
<path transform="matrix(1,0,0,-1,151.65637,238.78888)" d="M-8-8H8V8H-8Z"/>
</clipPath>
<clipPath id="clip_37">
<path transform="matrix(1,0,0,-1,193.06331,199.54436)" d="M-8-8H8V8H-8Z"/>
</clipPath>
<clipPath id="clip_38">
<path transform="matrix(1,0,0,-1,234.47025,173.38135)" d="M-8-8H8V8H-8Z"/>
</clipPath>
<clipPath id="clip_39">
<path transform="matrix(1,0,0,-1,275.87718,147.21834)" d="M-8-8H8V8H-8Z"/>
</clipPath>
<clipPath id="clip_40">
<path transform="matrix(1,0,0,-1,317.2841,121.05533)" d="M-8-8H8V8H-8Z"/>
</clipPath>
<clipPath id="clip_41">
<path transform="matrix(1,0,0,-1,358.691,101.43307)" d="M-8-8H8V8H-8Z"/>
</clipPath>
<clipPath id="clip_42">
<path transform="matrix(1,0,0,-1,400.09794,88.35156)" d="M-8-8H8V8H-8Z"/>
</clipPath>
<clipPath id="clip_43">
<path transform="matrix(1,0,0,-1,0,397.8)" d="M52.279729 54.03203H416.66075V349.02003H52.279729Z"/>
</clipPath>
<clipPath id="clip_44">
<path transform="matrix(1,0,0,-1,68.8425,199.54436)" d="M-7.8531696-7.427051H7.8531696V8H-7.8531696Z"/>
</clipPath>
<clipPath id="clip_45">
<path transform="matrix(1,0,0,-1,110.249439,219.16661)" d="M-7.8531696-7.427051H7.8531696V8H-7.8531696Z"/>
</clipPath>
<clipPath id="clip_46">
<path transform="matrix(1,0,0,-1,151.65637,206.0851)" d="M-7.8531696-7.427051H7.8531696V8H-7.8531696Z"/>
</clipPath>
<clipPath id="clip_47">
<path transform="matrix(1,0,0,-1,193.06331,179.92209)" d="M-7.8531696-7.427051H7.8531696V8H-7.8531696Z"/>
</clipPath>
<clipPath id="clip_48">
<path transform="matrix(1,0,0,-1,234.47025,153.75908)" d="M-7.8531696-7.427051H7.8531696V8H-7.8531696Z"/>
</clipPath>
<clipPath id="clip_49">
<path transform="matrix(1,0,0,-1,275.87718,127.59607)" d="M-7.8531696-7.427051H7.8531696V8H-7.8531696Z"/>
</clipPath>
<clipPath id="clip_50">
<path transform="matrix(1,0,0,-1,317.2841,107.97381)" d="M-7.8531696-7.427051H7.8531696V8H-7.8531696Z"/>
</clipPath>
<clipPath id="clip_51">
<path transform="matrix(1,0,0,-1,358.691,88.35155)" d="M-7.8531696-7.427051H7.8531696V8H-7.8531696Z"/>
</clipPath>
<clipPath id="clip_52">
<path transform="matrix(1,0,0,-1,400.09794,75.27004)" d="M-7.8531696-7.427051H7.8531696V8H-7.8531696Z"/>
</clipPath>
<clipPath id="clip_53">
<path transform="matrix(1,0,0,-1,0,397.8)" d="M52.279729 54.03203H416.66075V349.02003H52.279729Z"/>
</clipPath>
<clipPath id="clip_54">
<path transform="matrix(1,0,0,-1,68.8425,101.433048)" d="M-9.2426409-9.2426409H9.2426409V9.2426409H-9.2426409Z"/>
</clipPath>
<clipPath id="clip_55">
<path transform="matrix(1,0,0,-1,110.249439,153.75907)" d="M-9.2426409-9.2426409H9.2426409V9.2426409H-9.2426409Z"/>
</clipPath>
<clipPath id="clip_56">
<path transform="matrix(1,0,0,-1,151.65637,153.75907)" d="M-9.2426409-9.2426409H9.2426409V9.2426409H-9.2426409Z"/>
</clipPath>
<clipPath id="clip_57">
<path transform="matrix(1,0,0,-1,193.06331,147.2183)" d="M-9.2426409-9.2426409H9.2426409V9.2426409H-9.2426409Z"/>
</clipPath>
<clipPath id="clip_58">
<path transform="matrix(1,0,0,-1,234.47025,127.59605)" d="M-9.2426409-9.2426409H9.2426409V9.2426409H-9.2426409Z"/>
</clipPath>
<clipPath id="clip_59">
<path transform="matrix(1,0,0,-1,275.87718,107.973789)" d="M-9.2426409-9.2426409H9.2426409V9.2426409H-9.2426409Z"/>
</clipPath>
<clipPath id="clip_60">
<path transform="matrix(1,0,0,-1,317.2841,88.351528)" d="M-9.2426409-9.2426409H9.2426409V9.2426409H-9.2426409Z"/>
</clipPath>
<clipPath id="clip_61">
<path transform="matrix(1,0,0,-1,358.691,75.27002)" d="M-9.2426409-9.2426409H9.2426409V9.2426409H-9.2426409Z"/>
</clipPath>
<clipPath id="clip_62">
<path transform="matrix(1,0,0,-1,400.09794,62.188516)" d="M-9.2426409-9.2426409H9.2426409V9.2426409H-9.2426409Z"/>
</clipPath>
<clipPath id="clip_63">
<path transform="matrix(1,0,0,-1,0,397.8)" d="M503.54637 54.03203H867.92739V349.02003H503.54637Z"/>
</clipPath>
<clipPath id="clip_64">
<path transform="matrix(1,0,0,-1,0,397.8)" d="M503.54637 54.03203H867.92739V349.02003H503.54637Z"/>
</clipPath>
<clipPath id="clip_65">
<path transform="matrix(1,0,0,-1,0,397.8)" d="M503.54637 54.03203H867.92739V349.02003H503.54637Z"/>
</clipPath>
<clipPath id="clip_66">
<path transform="matrix(1,0,0,-1,0,397.8)" d="M503.54637 54.03203H867.92739V349.02003H503.54637Z"/>
</clipPath>
<clipPath id="clip_67">
<path transform="matrix(1,0,0,-1,0,397.8)" d="M503.54637 54.03203H867.92739V349.02003H503.54637Z"/>
</clipPath>
<clipPath id="clip_68">
<path transform="matrix(1,0,0,-1,0,397.8)" d="M503.54637 54.03203H867.92739V349.02003H503.54637Z"/>
</clipPath>
<clipPath id="clip_69">
<path transform="matrix(1,0,0,-1,0,397.8)" d="M503.54637 54.03203H867.92739V349.02003H503.54637Z"/>
</clipPath>
<clipPath id="clip_70">
<path transform="matrix(1,0,0,-1,0,397.8)" d="M503.54637 54.03203H867.92739V349.02003H503.54637Z"/>
</clipPath>
<clipPath id="clip_71">
<path transform="matrix(1,0,0,-1,0,397.8)" d="M503.54637 54.03203H867.92739V349.02003H503.54637Z"/>
</clipPath>
<clipPath id="clip_72">
<path transform="matrix(1,0,0,-1,0,397.8)" d="M503.54637 54.03203H867.92739V349.02003H503.54637Z"/>
</clipPath>
<clipPath id="clip_73">
<path transform="matrix(1,0,0,-1,0,397.8)" d="M503.54637 54.03203H867.92739V349.02003H503.54637Z"/>
</clipPath>
<clipPath id="clip_74">
<path transform="matrix(1,0,0,-1,0,397.8)" d="M503.54637 54.03203H867.92739V349.02003H503.54637Z"/>
</clipPath>
<clipPath id="clip_75">
<path transform="matrix(1,0,0,-1,0,397.8)" d="M503.54637 54.03203H867.92739V349.02003H503.54637Z"/>
</clipPath>
<clipPath id="clip_76">
<path transform="matrix(1,0,0,-1,0,397.8)" d="M503.54637 54.03203H867.92739V349.02003H503.54637Z"/>
</clipPath>
<clipPath id="clip_77">
<path transform="matrix(1,0,0,-1,0,397.8)" d="M503.54637 54.03203H867.92739V349.02003H503.54637Z"/>
</clipPath>
<clipPath id="clip_78">
<path transform="matrix(1,0,0,-1,0,397.8)" d="M503.54637 54.03203H867.92739V349.02003H503.54637Z"/>
</clipPath>
<clipPath id="clip_79">
<path transform="matrix(1,0,0,-1,0,397.8)" d="M503.54637 54.03203H867.92739V349.02003H503.54637Z"/>
</clipPath>
<clipPath id="clip_80">
<path transform="matrix(1,0,0,-1,0,397.8)" d="M503.54637 54.03203H867.92739V349.02003H503.54637Z"/>
</clipPath>
<clipPath id="clip_81">
<path transform="matrix(1,0,0,-1,0,397.8)" d="M503.54637 54.03203H867.92739V349.02003H503.54637Z"/>
</clipPath>
<clipPath id="clip_82">
<path transform="matrix(1,0,0,-1,0,397.8)" d="M503.54637 54.03203H867.92739V349.02003H503.54637Z"/>
</clipPath>
<clipPath id="clip_83">
<path transform="matrix(1,0,0,-1,0,397.8)" d="M503.54637 54.03203H867.92739V349.02003H503.54637Z"/>
</clipPath>
<clipPath id="clip_84">
<path transform="matrix(1,0,0,-1,0,397.8)" d="M503.54637 54.03203H867.92739V349.02003H503.54637Z"/>
</clipPath>
<clipPath id="clip_85">
<path transform="matrix(1,0,0,-1,0,397.8)" d="M503.54637 54.03203H867.92739V349.02003H503.54637Z"/>
</clipPath>
<clipPath id="clip_86">
<path transform="matrix(1,0,0,-1,0,397.8)" d="M503.54637 54.03203H867.92739V349.02003H503.54637Z"/>
</clipPath>
<clipPath id="clip_87">
<path transform="matrix(1,0,0,-1,0,397.8)" d="M503.54637 54.03203H867.92739V349.02003H503.54637Z"/>
</clipPath>
<clipPath id="clip_88">
<path transform="matrix(1,0,0,-1,0,397.8)" d="M503.54637 54.03203H867.92739V349.02003H503.54637Z"/>
</clipPath>
<clipPath id="clip_89">
<path transform="matrix(1,0,0,-1,0,397.8)" d="M503.54637 54.03203H867.92739V349.02003H503.54637Z"/>
</clipPath>
<clipPath id="clip_90">
<path transform="matrix(1,0,0,-1,0,397.8)" d="M503.54637 54.03203H867.92739V349.02003H503.54637Z"/>
</clipPath>
<clipPath id="clip_91">
<path transform="matrix(1,0,0,-1,0,397.8)" d="M503.54637 54.03203H867.92739V349.02003H503.54637Z"/>
</clipPath>
<clipPath id="clip_92">
<path transform="matrix(1,0,0,-1,0,397.8)" d="M503.54637 54.03203H867.92739V349.02003H503.54637Z"/>
</clipPath>
<clipPath id="clip_93">
<path transform="matrix(1,0,0,-1,0,397.8)" d="M503.54637 54.03203H867.92739V349.02003H503.54637Z"/>
</clipPath>
<clipPath id="clip_94">
<path transform="matrix(1,0,0,-1,0,397.8)" d="M503.54637 54.03203H867.92739V349.02003H503.54637Z"/>
</clipPath>
<clipPath id="clip_95">
<path transform="matrix(1,0,0,-1,520.10916,62.188539)" d="M-8-8H8V8H-8Z"/>
</clipPath>
<clipPath id="clip_96">
<path transform="matrix(1,0,0,-1,561.51608,94.75719)" d="M-8-8H8V8H-8Z"/>
</clipPath>
<clipPath id="clip_97">
<path transform="matrix(1,0,0,-1,602.923,126.31169)" d="M-8-8H8V8H-8Z"/>
</clipPath>
<clipPath id="clip_98">
<path transform="matrix(1,0,0,-1,644.3299,155.48578)" d="M-8-8H8V8H-8Z"/>
</clipPath>
<clipPath id="clip_99">
<path transform="matrix(1,0,0,-1,685.7368,182.19522)" d="M-8-8H8V8H-8Z"/>
</clipPath>
<clipPath id="clip_100">
<path transform="matrix(1,0,0,-1,727.14376,206.70172)" d="M-8-8H8V8H-8Z"/>
</clipPath>
<clipPath id="clip_101">
<path transform="matrix(1,0,0,-1,768.55068,229.30889)" d="M-8-8H8V8H-8Z"/>
</clipPath>
<clipPath id="clip_102">
<path transform="matrix(1,0,0,-1,809.9576,250.27544)" d="M-8-8H8V8H-8Z"/>
</clipPath>
<clipPath id="clip_103">
<path transform="matrix(1,0,0,-1,851.3645,269.80937)" d="M-8-8H8V8H-8Z"/>
</clipPath>
<clipPath id="clip_104">
<path transform="matrix(1,0,0,-1,0,397.8)" d="M503.54637 54.03203H867.92739V349.02003H503.54637Z"/>
</clipPath>
<clipPath id="clip_105">
<path transform="matrix(1,0,0,-1,520.10916,108.684329)" d="M-8-8H8V8H-8Z"/>
</clipPath>
<clipPath id="clip_106">
<path transform="matrix(1,0,0,-1,561.51608,121.93671)" d="M-8-8H8V8H-8Z"/>
</clipPath>
<clipPath id="clip_107">
<path transform="matrix(1,0,0,-1,602.923,143.5645)" d="M-8-8H8V8H-8Z"/>
</clipPath>
<clipPath id="clip_108">
<path transform="matrix(1,0,0,-1,644.3299,167.45648)" d="M-8-8H8V8H-8Z"/>
</clipPath>
<clipPath id="clip_109">
<path transform="matrix(1,0,0,-1,685.7368,191.21237)" d="M-8-8H8V8H-8Z"/>
</clipPath>
<clipPath id="clip_110">
<path transform="matrix(1,0,0,-1,727.14376,213.92807)" d="M-8-8H8V8H-8Z"/>
</clipPath>
<clipPath id="clip_111">
<path transform="matrix(1,0,0,-1,768.55068,235.35494)" d="M-8-8H8V8H-8Z"/>
</clipPath>
<clipPath id="clip_112">
<path transform="matrix(1,0,0,-1,809.9576,255.48845)" d="M-8-8H8V8H-8Z"/>
</clipPath>
<clipPath id="clip_113">
<path transform="matrix(1,0,0,-1,851.3645,274.40077)" d="M-8-8H8V8H-8Z"/>
</clipPath>
<clipPath id="clip_114">
<path transform="matrix(1,0,0,-1,0,397.8)" d="M503.54637 54.03203H867.92739V349.02003H503.54637Z"/>
</clipPath>
<clipPath id="clip_115">
<path transform="matrix(1,0,0,-1,520.10916,166.26175)" d="M-8-8H8V8H-8Z"/>
</clipPath>
<clipPath id="clip_116">
<path transform="matrix(1,0,0,-1,561.51608,160.06484)" d="M-8-8H8V8H-8Z"/>
</clipPath>
<clipPath id="clip_117">
<path transform="matrix(1,0,0,-1,602.923,170.5966)" d="M-8-8H8V8H-8Z"/>
</clipPath>
<clipPath id="clip_118">
<path transform="matrix(1,0,0,-1,644.3299,187.52887)" d="M-8-8H8V8H-8Z"/>
</clipPath>
<clipPath id="clip_119">
<path transform="matrix(1,0,0,-1,685.7368,206.83544)" d="M-8-8H8V8H-8Z"/>
</clipPath>
<clipPath id="clip_120">
<path transform="matrix(1,0,0,-1,727.14376,226.61463)" d="M-8-8H8V8H-8Z"/>
</clipPath>
<clipPath id="clip_121">
<path transform="matrix(1,0,0,-1,768.55068,246.00884)" d="M-8-8H8V8H-8Z"/>
</clipPath>
<clipPath id="clip_122">
<path transform="matrix(1,0,0,-1,809.9576,264.66273)" d="M-8-8H8V8H-8Z"/>
</clipPath>
<clipPath id="clip_123">
<path transform="matrix(1,0,0,-1,851.3645,282.4546)" d="M-8-8H8V8H-8Z"/>
</clipPath>
<clipPath id="clip_124">
<path transform="matrix(1,0,0,-1,0,397.8)" d="M503.54637 54.03203H867.92739V349.02003H503.54637Z"/>
</clipPath>
<clipPath id="clip_125">
<path transform="matrix(1,0,0,-1,520.10916,236.83269)" d="M-7.8531696-7.427051H7.8531696V8H-7.8531696Z"/>
</clipPath>
<clipPath id="clip_126">
<path transform="matrix(1,0,0,-1,561.51608,207.01349)" d="M-7.8531696-7.427051H7.8531696V8H-7.8531696Z"/>
</clipPath>
<clipPath id="clip_127">
<path transform="matrix(1,0,0,-1,602.923,205.43157)" d="M-7.8531696-7.427051H7.8531696V8H-7.8531696Z"/>
</clipPath>
<clipPath id="clip_128">
<path transform="matrix(1,0,0,-1,644.3299,214.50809)" d="M-7.8531696-7.427051H7.8531696V8H-7.8531696Z"/>
</clipPath>
<clipPath id="clip_129">
<path transform="matrix(1,0,0,-1,685.7368,228.42504)" d="M-7.8531696-7.427051H7.8531696V8H-7.8531696Z"/>
</clipPath>
<clipPath id="clip_130">
<path transform="matrix(1,0,0,-1,727.14376,244.4174)" d="M-7.8531696-7.427051H7.8531696V8H-7.8531696Z"/>
</clipPath>
<clipPath id="clip_131">
<path transform="matrix(1,0,0,-1,768.55068,261.0755)" d="M-7.8531696-7.427051H7.8531696V8H-7.8531696Z"/>
</clipPath>
<clipPath id="clip_132">
<path transform="matrix(1,0,0,-1,809.9576,277.68736)" d="M-7.8531696-7.427051H7.8531696V8H-7.8531696Z"/>
</clipPath>
<clipPath id="clip_133">
<path transform="matrix(1,0,0,-1,851.3645,293.9069)" d="M-7.8531696-7.427051H7.8531696V8H-7.8531696Z"/>
</clipPath>
<clipPath id="clip_134">
<path transform="matrix(1,0,0,-1,0,397.8)" d="M503.54637 54.03203H867.92739V349.02003H503.54637Z"/>
</clipPath>
<clipPath id="clip_135">
<path transform="matrix(1,0,0,-1,520.10916,330.3594)" d="M-9.2426409-9.2426409H9.2426409V9.2426409H-9.2426409Z"/>
</clipPath>
<clipPath id="clip_136">
<path transform="matrix(1,0,0,-1,561.51608,264.65007)" d="M-9.2426409-9.2426409H9.2426409V9.2426409H-9.2426409Z"/>
</clipPath>
<clipPath id="clip_137">
<path transform="matrix(1,0,0,-1,602.923,248.0325)" d="M-9.2426409-9.2426409H9.2426409V9.2426409H-9.2426409Z"/>
</clipPath>
<clipPath id="clip_138">
<path transform="matrix(1,0,0,-1,644.3299,248.03987)" d="M-9.2426409-9.2426409H9.2426409V9.2426409H-9.2426409Z"/>
</clipPath>
<clipPath id="clip_139">
<path transform="matrix(1,0,0,-1,685.7368,255.6919)" d="M-9.2426409-9.2426409H9.2426409V9.2426409H-9.2426409Z"/>
</clipPath>
<clipPath id="clip_140">
<path transform="matrix(1,0,0,-1,727.14376,267.1571)" d="M-9.2426409-9.2426409H9.2426409V9.2426409H-9.2426409Z"/>
</clipPath>
<clipPath id="clip_141">
<path transform="matrix(1,0,0,-1,768.55068,280.45387)" d="M-9.2426409-9.2426409H9.2426409V9.2426409H-9.2426409Z"/>
</clipPath>
<clipPath id="clip_142">
<path transform="matrix(1,0,0,-1,809.9576,294.50816)" d="M-9.2426409-9.2426409H9.2426409V9.2426409H-9.2426409Z"/>
</clipPath>
<clipPath id="clip_143">
<path transform="matrix(1,0,0,-1,851.3645,308.7312)" d="M-9.2426409-9.2426409H9.2426409V9.2426409H-9.2426409Z"/>
</clipPath>
</defs>
<g clip-path="url(#clip_1)">
<path transform="matrix(1,0,0,-1,0,397.8)" stroke-width=".5" stroke-linecap="butt" stroke-dasharray="1.85,.8" stroke-linejoin="round" fill="none" stroke="#d2d0d0" d="M68.8425 54.03203V349.02"/>
</g>
<path transform="matrix(1,0,0,-1,0,397.8)" d="M68.8425 54.03203V50.53203"/>
<path transform="matrix(1,0,0,-1,0,397.8)" stroke-width=".8" stroke-linecap="butt" stroke-linejoin="round" fill="none" stroke="#000000" d="M68.8425 54.03203V50.53203"/>
<text xml:space="preserve" transform="matrix(1 0 -0 1 0 397.8)" font-size="17.932753" font-family="Computer Modern"><tspan y="-34.57873" x="56.50607 64.71927 72.93247">500</tspan></text>
<g clip-path="url(#clip_2)">
<path transform="matrix(1,0,0,-1,0,397.8)" stroke-width=".5" stroke-linecap="butt" stroke-dasharray="1.85,.8" stroke-linejoin="round" fill="none" stroke="#d2d0d0" d="M151.65636 54.03203V349.02"/>
</g>
<path transform="matrix(1,0,0,-1,0,397.8)" d="M151.65636 54.03203V50.53203"/>
<path transform="matrix(1,0,0,-1,0,397.8)" stroke-width=".8" stroke-linecap="butt" stroke-linejoin="round" fill="none" stroke="#000000" d="M151.65636 54.03203V50.53203"/>
<text xml:space="preserve" transform="matrix(1 0 -0 1 0 397.8)" font-size="17.932753" font-family="Computer Modern"><tspan y="-34.57873" x="135.2078 143.42099 151.63419 159.84738">1000</tspan></text>
<g clip-path="url(#clip_3)">
<path transform="matrix(1,0,0,-1,0,397.8)" stroke-width=".5" stroke-linecap="butt" stroke-dasharray="1.85,.8" stroke-linejoin="round" fill="none" stroke="#d2d0d0" d="M234.47023 54.03203V349.02"/>
</g>
<path transform="matrix(1,0,0,-1,0,397.8)" d="M234.47023 54.03203V50.53203"/>
<path transform="matrix(1,0,0,-1,0,397.8)" stroke-width=".8" stroke-linecap="butt" stroke-linejoin="round" fill="none" stroke="#000000" d="M234.47023 54.03203V50.53203"/>
<text xml:space="preserve" transform="matrix(1 0 -0 1 0 397.8)" font-size="17.932753" font-family="Computer Modern"><tspan y="-34.57873" x="218.02165 226.23485 234.44805 242.66124">1500</tspan></text>
<g clip-path="url(#clip_4)">
<path transform="matrix(1,0,0,-1,0,397.8)" stroke-width=".5" stroke-linecap="butt" stroke-dasharray="1.85,.8" stroke-linejoin="round" fill="none" stroke="#d2d0d0" d="M317.2841 54.03203V349.02"/>
</g>
<path transform="matrix(1,0,0,-1,0,397.8)" d="M317.2841 54.03203V50.53203"/>
<path transform="matrix(1,0,0,-1,0,397.8)" stroke-width=".8" stroke-linecap="butt" stroke-linejoin="round" fill="none" stroke="#000000" d="M317.2841 54.03203V50.53203"/>
<text xml:space="preserve" transform="matrix(1 0 -0 1 0 397.8)" font-size="17.932753" font-family="Computer Modern"><tspan y="-34.57873" x="300.8355 309.0487 317.2619 325.4751">2000</tspan></text>
<g clip-path="url(#clip_5)">
<path transform="matrix(1,0,0,-1,0,397.8)" stroke-width=".5" stroke-linecap="butt" stroke-dasharray="1.85,.8" stroke-linejoin="round" fill="none" stroke="#d2d0d0" d="M400.09797 54.03203V349.02"/>
</g>
<path transform="matrix(1,0,0,-1,0,397.8)" d="M400.09797 54.03203V50.53203"/>
<path transform="matrix(1,0,0,-1,0,397.8)" stroke-width=".8" stroke-linecap="butt" stroke-linejoin="round" fill="none" stroke="#000000" d="M400.09797 54.03203V50.53203"/>
<text xml:space="preserve" transform="matrix(1 0 -0 1 0 397.8)" font-size="17.932753" font-family="Computer Modern"><tspan y="-34.57873" x="383.64939 391.86259 400.07579 408.28898">2500</tspan></text>
<text xml:space="preserve" transform="matrix(1 0 -0 1 0 397.8)" font-size="19.92528" font-family="Computer Modern"><tspan y="-12.164643" x="134.66728 144.82918 153.95496 161.0085 169.09816 174.05956 179.02095 183.98235 191.03589 205.14075 214.26653 219.22792 226.28147 231.24286 238.2964 248.4583 258.62019 266.70985">Satellitealtitude,</tspan></text>
<text xml:space="preserve" transform="matrix(1 0 -0 1 0 397.8)" font-size="19.92528" font-family="Computer Modern" font-style="italic"><tspan y="-12.164643" x="277.87226">h</tspan></text>
<text xml:space="preserve" transform="matrix(1 0 -0 1 0 397.8)" font-size="19.92528" font-family="Computer Modern"><tspan y="-12.164643" x="295.11839 302.17195 311.81578 327.1981">(km)</tspan></text>
<g clip-path="url(#clip_6)">
<path transform="matrix(1,0,0,-1,0,397.8)" stroke-width=".5" stroke-linecap="butt" stroke-dasharray="1.85,.8" stroke-linejoin="round" fill="none" stroke="#d2d0d0" d="M52.279726 69.19648H416.66075"/>
</g>
<path transform="matrix(1,0,0,-1,0,397.8)" d="M52.279726 69.19648H48.779726"/>
<path transform="matrix(1,0,0,-1,0,397.8)" stroke-width=".8" stroke-linecap="butt" stroke-linejoin="round" fill="none" stroke="#000000" d="M52.279726 69.19648H48.779726"/>
<text xml:space="preserve" transform="matrix(1 0 -0 1 0 397.8)" font-size="17.932753" font-family="Computer Modern"><tspan y="-62.96983" x="37.05544">3</tspan></text>
<g clip-path="url(#clip_7)">
<path transform="matrix(1,0,0,-1,0,397.8)" stroke-width=".5" stroke-linecap="butt" stroke-dasharray="1.85,.8" stroke-linejoin="round" fill="none" stroke="#d2d0d0" d="M52.279726 112.655178H416.66075"/>
</g>
<path transform="matrix(1,0,0,-1,0,397.8)" d="M52.279726 112.655178H48.779726"/>
<path transform="matrix(1,0,0,-1,0,397.8)" stroke-width=".8" stroke-linecap="butt" stroke-linejoin="round" fill="none" stroke="#000000" d="M52.279726 112.655178H48.779726"/>
<text xml:space="preserve" transform="matrix(1 0 -0 1 0 397.8)" font-size="17.932753" font-family="Computer Modern"><tspan y="-106.42853" x="37.05544">4</tspan></text>
<g clip-path="url(#clip_8)">
<path transform="matrix(1,0,0,-1,0,397.8)" stroke-width=".5" stroke-linecap="butt" stroke-dasharray="1.85,.8" stroke-linejoin="round" fill="none" stroke="#d2d0d0" d="M52.279726 156.11388H416.66075"/>
</g>
<path transform="matrix(1,0,0,-1,0,397.8)" d="M52.279726 156.11388H48.779726"/>
<path transform="matrix(1,0,0,-1,0,397.8)" stroke-width=".8" stroke-linecap="butt" stroke-linejoin="round" fill="none" stroke="#000000" d="M52.279726 156.11388H48.779726"/>
<text xml:space="preserve" transform="matrix(1 0 -0 1 0 397.8)" font-size="17.932753" font-family="Computer Modern"><tspan y="-149.88722" x="37.05544">5</tspan></text>
<g clip-path="url(#clip_9)">
<path transform="matrix(1,0,0,-1,0,397.8)" stroke-width=".5" stroke-linecap="butt" stroke-dasharray="1.85,.8" stroke-linejoin="round" fill="none" stroke="#d2d0d0" d="M52.279726 199.57257H416.66075"/>
</g>
<path transform="matrix(1,0,0,-1,0,397.8)" d="M52.279726 199.57257H48.779726"/>
<path transform="matrix(1,0,0,-1,0,397.8)" stroke-width=".8" stroke-linecap="butt" stroke-linejoin="round" fill="none" stroke="#000000" d="M52.279726 199.57257H48.779726"/>
<text xml:space="preserve" transform="matrix(1 0 -0 1 0 397.8)" font-size="17.932753" font-family="Computer Modern"><tspan y="-193.34592" x="37.05544">6</tspan></text>
<g clip-path="url(#clip_10)">
<path transform="matrix(1,0,0,-1,0,397.8)" stroke-width=".5" stroke-linecap="butt" stroke-dasharray="1.85,.8" stroke-linejoin="round" fill="none" stroke="#d2d0d0" d="M52.279726 243.03127H416.66075"/>
</g>
<path transform="matrix(1,0,0,-1,0,397.8)" d="M52.279726 243.03127H48.779726"/>
<path transform="matrix(1,0,0,-1,0,397.8)" stroke-width=".8" stroke-linecap="butt" stroke-linejoin="round" fill="none" stroke="#000000" d="M52.279726 243.03127H48.779726"/>
<text xml:space="preserve" transform="matrix(1 0 -0 1 0 397.8)" font-size="17.932753" font-family="Computer Modern"><tspan y="-236.80461" x="37.05544">7</tspan></text>
<g clip-path="url(#clip_11)">
<path transform="matrix(1,0,0,-1,0,397.8)" stroke-width=".5" stroke-linecap="butt" stroke-dasharray="1.85,.8" stroke-linejoin="round" fill="none" stroke="#d2d0d0" d="M52.279726 286.48997H416.66075"/>
</g>
<path transform="matrix(1,0,0,-1,0,397.8)" d="M52.279726 286.48997H48.779726"/>
<path transform="matrix(1,0,0,-1,0,397.8)" stroke-width=".8" stroke-linecap="butt" stroke-linejoin="round" fill="none" stroke="#000000" d="M52.279726 286.48997H48.779726"/>
<text xml:space="preserve" transform="matrix(1 0 -0 1 0 397.8)" font-size="17.932753" font-family="Computer Modern"><tspan y="-280.2633" x="37.05544">8</tspan></text>
<g clip-path="url(#clip_12)">
<path transform="matrix(1,0,0,-1,0,397.8)" stroke-width=".5" stroke-linecap="butt" stroke-dasharray="1.85,.8" stroke-linejoin="round" fill="none" stroke="#d2d0d0" d="M52.279726 329.94868H416.66075"/>
</g>
<path transform="matrix(1,0,0,-1,0,397.8)" d="M52.279726 329.94868H48.779726"/>
<path transform="matrix(1,0,0,-1,0,397.8)" stroke-width=".8" stroke-linecap="butt" stroke-linejoin="round" fill="none" stroke="#000000" d="M52.279726 329.94868H48.779726"/>
<text xml:space="preserve" transform="matrix(1 0 -0 1 0 397.8)" font-size="17.932753" font-family="Computer Modern"><tspan y="-323.72203" x="37.05544">9</tspan></text>
<text xml:space="preserve" transform="matrix(0 -1 1 0 0 397.8)" font-size="19.92528" font-family="Computer Modern"><tspan y="28.090798" x="78.20659 92.53287 102.69476 109.748317 114.70971 130.09203 139.2178 150.1944 157.34758 164.40113 173.5269 180.58045 185.54184 199.6467 207.73636 217.89826 224.9518 234.07758 250.55355 257.6071 264.76026 272.8499 280.93959 290.06538 300.22727 310.38917 317.54234">Optimalstaticcuto&#xfb00;(seconds)</tspan></text>
<g clip-path="url(#clip_13)">
<path transform="matrix(1,0,0,-1,0,397.8)" stroke-width="1.5" stroke-linecap="square" stroke-linejoin="round" fill="none" stroke="#e41a1c" d="M68.8425 244.04091 110.24943 211.33715 151.65636 139.38886 193.0633 159.01113 234.47023 185.17414 275.87718 217.8779 317.2841 244.04091 358.691 263.66319 400.09797 289.82618"/>
<g clip-path="url(#clip_14)">
<path transform="matrix(1,0,0,-1,68.8425,153.75908)" d="M0 3-3-3H3Z" fill="#e41a1c"/>
<path transform="matrix(1,0,0,-1,68.8425,153.75908)" stroke-width="1" stroke-linecap="butt" stroke-miterlimit="10" stroke-linejoin="miter" fill="none" stroke="#e41a1c" d="M0 3-3-3H3Z"/>
</g>
<g clip-path="url(#clip_15)">
<path transform="matrix(1,0,0,-1,110.249439,186.46285)" d="M0 3-3-3H3Z" fill="#e41a1c"/>
<path transform="matrix(1,0,0,-1,110.249439,186.46285)" stroke-width="1" stroke-linecap="butt" stroke-miterlimit="10" stroke-linejoin="miter" fill="none" stroke="#e41a1c" d="M0 3-3-3H3Z"/>
</g>
<g clip-path="url(#clip_16)">
<path transform="matrix(1,0,0,-1,151.65637,258.41114)" d="M0 3-3-3H3Z" fill="#e41a1c"/>
<path transform="matrix(1,0,0,-1,151.65637,258.41114)" stroke-width="1" stroke-linecap="butt" stroke-miterlimit="10" stroke-linejoin="miter" fill="none" stroke="#e41a1c" d="M0 3-3-3H3Z"/>
</g>
<g clip-path="url(#clip_17)">
<path transform="matrix(1,0,0,-1,193.06331,238.78888)" d="M0 3-3-3H3Z" fill="#e41a1c"/>
<path transform="matrix(1,0,0,-1,193.06331,238.78888)" stroke-width="1" stroke-linecap="butt" stroke-miterlimit="10" stroke-linejoin="miter" fill="none" stroke="#e41a1c" d="M0 3-3-3H3Z"/>
</g>
<g clip-path="url(#clip_18)">
<path transform="matrix(1,0,0,-1,234.47025,212.62587)" d="M0 3-3-3H3Z" fill="#e41a1c"/>
<path transform="matrix(1,0,0,-1,234.47025,212.62587)" stroke-width="1" stroke-linecap="butt" stroke-miterlimit="10" stroke-linejoin="miter" fill="none" stroke="#e41a1c" d="M0 3-3-3H3Z"/>
</g>
<g clip-path="url(#clip_19)">
<path transform="matrix(1,0,0,-1,275.87718,179.9221)" d="M0 3-3-3H3Z" fill="#e41a1c"/>
<path transform="matrix(1,0,0,-1,275.87718,179.9221)" stroke-width="1" stroke-linecap="butt" stroke-miterlimit="10" stroke-linejoin="miter" fill="none" stroke="#e41a1c" d="M0 3-3-3H3Z"/>
</g>
<g clip-path="url(#clip_20)">
<path transform="matrix(1,0,0,-1,317.2841,153.7591)" d="M0 3-3-3H3Z" fill="#e41a1c"/>
<path transform="matrix(1,0,0,-1,317.2841,153.7591)" stroke-width="1" stroke-linecap="butt" stroke-miterlimit="10" stroke-linejoin="miter" fill="none" stroke="#e41a1c" d="M0 3-3-3H3Z"/>
</g>
<g clip-path="url(#clip_21)">
<path transform="matrix(1,0,0,-1,358.691,134.13684)" d="M0 3-3-3H3Z" fill="#e41a1c"/>
<path transform="matrix(1,0,0,-1,358.691,134.13684)" stroke-width="1" stroke-linecap="butt" stroke-miterlimit="10" stroke-linejoin="miter" fill="none" stroke="#e41a1c" d="M0 3-3-3H3Z"/>
</g>
<g clip-path="url(#clip_22)">
<path transform="matrix(1,0,0,-1,400.09794,107.97383)" d="M0 3-3-3H3Z" fill="#e41a1c"/>
<path transform="matrix(1,0,0,-1,400.09794,107.97383)" stroke-width="1" stroke-linecap="butt" stroke-miterlimit="10" stroke-linejoin="miter" fill="none" stroke="#e41a1c" d="M0 3-3-3H3Z"/>
</g>
</g>
<g clip-path="url(#clip_23)">
<path transform="matrix(1,0,0,-1,0,397.8)" stroke-width="1.5" stroke-linecap="square" stroke-linejoin="round" fill="none" stroke="#377eb8" d="M68.8425 67.440578 110.24943 113.225849 151.65636 145.92961 193.0633 178.63338 234.47023 204.79639 275.87718 230.95941 317.2841 257.1224 358.691 276.7447 400.09797 296.36695"/>
<g clip-path="url(#clip_24)">
<path transform="matrix(1,0,0,-1,68.8425,330.3594)" d="M0-3C.795609-3 1.55874-2.683901 2.12132-2.12132 2.683901-1.55874 3-.795609 3 0 3 .795609 2.683901 1.55874 2.12132 2.12132 1.55874 2.683901 .795609 3 0 3-.795609 3-1.55874 2.683901-2.12132 2.12132-2.683901 1.55874-3 .795609-3 0-3-.795609-2.683901-1.55874-2.12132-2.12132-1.55874-2.683901-.795609-3 0-3Z" fill="#377eb8"/>
<path transform="matrix(1,0,0,-1,68.8425,330.3594)" stroke-width="1" stroke-linecap="butt" stroke-linejoin="round" fill="none" stroke="#377eb8" d="M0-3C.795609-3 1.55874-2.683901 2.12132-2.12132 2.683901-1.55874 3-.795609 3 0 3 .795609 2.683901 1.55874 2.12132 2.12132 1.55874 2.683901 .795609 3 0 3-.795609 3-1.55874 2.683901-2.12132 2.12132-2.683901 1.55874-3 .795609-3 0-3-.795609-2.683901-1.55874-2.12132-2.12132-1.55874-2.683901-.795609-3 0-3Z"/>
</g>
<g clip-path="url(#clip_25)">
<path transform="matrix(1,0,0,-1,110.249439,284.57414)" d="M0-3C.795609-3 1.55874-2.683901 2.12132-2.12132 2.683901-1.55874 3-.795609 3 0 3 .795609 2.683901 1.55874 2.12132 2.12132 1.55874 2.683901 .795609 3 0 3-.795609 3-1.55874 2.683901-2.12132 2.12132-2.683901 1.55874-3 .795609-3 0-3-.795609-2.683901-1.55874-2.12132-2.12132-1.55874-2.683901-.795609-3 0-3Z" fill="#377eb8"/>
<path transform="matrix(1,0,0,-1,110.249439,284.57414)" stroke-width="1" stroke-linecap="butt" stroke-linejoin="round" fill="none" stroke="#377eb8" d="M0-3C.795609-3 1.55874-2.683901 2.12132-2.12132 2.683901-1.55874 3-.795609 3 0 3 .795609 2.683901 1.55874 2.12132 2.12132 1.55874 2.683901 .795609 3 0 3-.795609 3-1.55874 2.683901-2.12132 2.12132-2.683901 1.55874-3 .795609-3 0-3-.795609-2.683901-1.55874-2.12132-2.12132-1.55874-2.683901-.795609-3 0-3Z"/>
</g>
<g clip-path="url(#clip_26)">
<path transform="matrix(1,0,0,-1,151.65637,251.87036)" d="M0-3C.795609-3 1.55874-2.683901 2.12132-2.12132 2.683901-1.55874 3-.795609 3 0 3 .795609 2.683901 1.55874 2.12132 2.12132 1.55874 2.683901 .795609 3 0 3-.795609 3-1.55874 2.683901-2.12132 2.12132-2.683901 1.55874-3 .795609-3 0-3-.795609-2.683901-1.55874-2.12132-2.12132-1.55874-2.683901-.795609-3 0-3Z" fill="#377eb8"/>
<path transform="matrix(1,0,0,-1,151.65637,251.87036)" stroke-width="1" stroke-linecap="butt" stroke-linejoin="round" fill="none" stroke="#377eb8" d="M0-3C.795609-3 1.55874-2.683901 2.12132-2.12132 2.683901-1.55874 3-.795609 3 0 3 .795609 2.683901 1.55874 2.12132 2.12132 1.55874 2.683901 .795609 3 0 3-.795609 3-1.55874 2.683901-2.12132 2.12132-2.683901 1.55874-3 .795609-3 0-3-.795609-2.683901-1.55874-2.12132-2.12132-1.55874-2.683901-.795609-3 0-3Z"/>
</g>
<g clip-path="url(#clip_27)">
<path transform="matrix(1,0,0,-1,193.06331,219.1666)" d="M0-3C.795609-3 1.55874-2.683901 2.12132-2.12132 2.683901-1.55874 3-.795609 3 0 3 .795609 2.683901 1.55874 2.12132 2.12132 1.55874 2.683901 .795609 3 0 3-.795609 3-1.55874 2.683901-2.12132 2.12132-2.683901 1.55874-3 .795609-3 0-3-.795609-2.683901-1.55874-2.12132-2.12132-1.55874-2.683901-.795609-3 0-3Z" fill="#377eb8"/>
<path transform="matrix(1,0,0,-1,193.06331,219.1666)" stroke-width="1" stroke-linecap="butt" stroke-linejoin="round" fill="none" stroke="#377eb8" d="M0-3C.795609-3 1.55874-2.683901 2.12132-2.12132 2.683901-1.55874 3-.795609 3 0 3 .795609 2.683901 1.55874 2.12132 2.12132 1.55874 2.683901 .795609 3 0 3-.795609 3-1.55874 2.683901-2.12132 2.12132-2.683901 1.55874-3 .795609-3 0-3-.795609-2.683901-1.55874-2.12132-2.12132-1.55874-2.683901-.795609-3 0-3Z"/>
</g>
<g clip-path="url(#clip_28)">
<path transform="matrix(1,0,0,-1,234.47025,193.00359)" d="M0-3C.795609-3 1.55874-2.683901 2.12132-2.12132 2.683901-1.55874 3-.795609 3 0 3 .795609 2.683901 1.55874 2.12132 2.12132 1.55874 2.683901 .795609 3 0 3-.795609 3-1.55874 2.683901-2.12132 2.12132-2.683901 1.55874-3 .795609-3 0-3-.795609-2.683901-1.55874-2.12132-2.12132-1.55874-2.683901-.795609-3 0-3Z" fill="#377eb8"/>
<path transform="matrix(1,0,0,-1,234.47025,193.00359)" stroke-width="1" stroke-linecap="butt" stroke-linejoin="round" fill="none" stroke="#377eb8" d="M0-3C.795609-3 1.55874-2.683901 2.12132-2.12132 2.683901-1.55874 3-.795609 3 0 3 .795609 2.683901 1.55874 2.12132 2.12132 1.55874 2.683901 .795609 3 0 3-.795609 3-1.55874 2.683901-2.12132 2.12132-2.683901 1.55874-3 .795609-3 0-3-.795609-2.683901-1.55874-2.12132-2.12132-1.55874-2.683901-.795609-3 0-3Z"/>
</g>
<g clip-path="url(#clip_29)">
<path transform="matrix(1,0,0,-1,275.87718,166.84058)" d="M0-3C.795609-3 1.55874-2.683901 2.12132-2.12132 2.683901-1.55874 3-.795609 3 0 3 .795609 2.683901 1.55874 2.12132 2.12132 1.55874 2.683901 .795609 3 0 3-.795609 3-1.55874 2.683901-2.12132 2.12132-2.683901 1.55874-3 .795609-3 0-3-.795609-2.683901-1.55874-2.12132-2.12132-1.55874-2.683901-.795609-3 0-3Z" fill="#377eb8"/>
<path transform="matrix(1,0,0,-1,275.87718,166.84058)" stroke-width="1" stroke-linecap="butt" stroke-linejoin="round" fill="none" stroke="#377eb8" d="M0-3C.795609-3 1.55874-2.683901 2.12132-2.12132 2.683901-1.55874 3-.795609 3 0 3 .795609 2.683901 1.55874 2.12132 2.12132 1.55874 2.683901 .795609 3 0 3-.795609 3-1.55874 2.683901-2.12132 2.12132-2.683901 1.55874-3 .795609-3 0-3-.795609-2.683901-1.55874-2.12132-2.12132-1.55874-2.683901-.795609-3 0-3Z"/>
</g>
<g clip-path="url(#clip_30)">
<path transform="matrix(1,0,0,-1,317.2841,140.67757)" d="M0-3C.795609-3 1.55874-2.683901 2.12132-2.12132 2.683901-1.55874 3-.795609 3 0 3 .795609 2.683901 1.55874 2.12132 2.12132 1.55874 2.683901 .795609 3 0 3-.795609 3-1.55874 2.683901-2.12132 2.12132-2.683901 1.55874-3 .795609-3 0-3-.795609-2.683901-1.55874-2.12132-2.12132-1.55874-2.683901-.795609-3 0-3Z" fill="#377eb8"/>
<path transform="matrix(1,0,0,-1,317.2841,140.67757)" stroke-width="1" stroke-linecap="butt" stroke-linejoin="round" fill="none" stroke="#377eb8" d="M0-3C.795609-3 1.55874-2.683901 2.12132-2.12132 2.683901-1.55874 3-.795609 3 0 3 .795609 2.683901 1.55874 2.12132 2.12132 1.55874 2.683901 .795609 3 0 3-.795609 3-1.55874 2.683901-2.12132 2.12132-2.683901 1.55874-3 .795609-3 0-3-.795609-2.683901-1.55874-2.12132-2.12132-1.55874-2.683901-.795609-3 0-3Z"/>
</g>
<g clip-path="url(#clip_31)">
<path transform="matrix(1,0,0,-1,358.691,121.055309)" d="M0-3C.795609-3 1.55874-2.683901 2.12132-2.12132 2.683901-1.55874 3-.795609 3 0 3 .795609 2.683901 1.55874 2.12132 2.12132 1.55874 2.683901 .795609 3 0 3-.795609 3-1.55874 2.683901-2.12132 2.12132-2.683901 1.55874-3 .795609-3 0-3-.795609-2.683901-1.55874-2.12132-2.12132-1.55874-2.683901-.795609-3 0-3Z" fill="#377eb8"/>
<path transform="matrix(1,0,0,-1,358.691,121.055309)" stroke-width="1" stroke-linecap="butt" stroke-linejoin="round" fill="none" stroke="#377eb8" d="M0-3C.795609-3 1.55874-2.683901 2.12132-2.12132 2.683901-1.55874 3-.795609 3 0 3 .795609 2.683901 1.55874 2.12132 2.12132 1.55874 2.683901 .795609 3 0 3-.795609 3-1.55874 2.683901-2.12132 2.12132-2.683901 1.55874-3 .795609-3 0-3-.795609-2.683901-1.55874-2.12132-2.12132-1.55874-2.683901-.795609-3 0-3Z"/>
</g>
<g clip-path="url(#clip_32)">
<path transform="matrix(1,0,0,-1,400.09794,101.433048)" d="M0-3C.795609-3 1.55874-2.683901 2.12132-2.12132 2.683901-1.55874 3-.795609 3 0 3 .795609 2.683901 1.55874 2.12132 2.12132 1.55874 2.683901 .795609 3 0 3-.795609 3-1.55874 2.683901-2.12132 2.12132-2.683901 1.55874-3 .795609-3 0-3-.795609-2.683901-1.55874-2.12132-2.12132-1.55874-2.683901-.795609-3 0-3Z" fill="#377eb8"/>
<path transform="matrix(1,0,0,-1,400.09794,101.433048)" stroke-width="1" stroke-linecap="butt" stroke-linejoin="round" fill="none" stroke="#377eb8" d="M0-3C.795609-3 1.55874-2.683901 2.12132-2.12132 2.683901-1.55874 3-.795609 3 0 3 .795609 2.683901 1.55874 2.12132 2.12132 1.55874 2.683901 .795609 3 0 3-.795609 3-1.55874 2.683901-2.12132 2.12132-2.683901 1.55874-3 .795609-3 0-3-.795609-2.683901-1.55874-2.12132-2.12132-1.55874-2.683901-.795609-3 0-3Z"/>
</g>
</g>
<g clip-path="url(#clip_33)">
<path transform="matrix(1,0,0,-1,0,397.8)" stroke-width="1.5" stroke-linecap="square" stroke-linejoin="round" fill="none" stroke="#4daf4a" d="M68.8425 113.225849 110.24943 126.30735 151.65636 159.01113 193.0633 198.25563 234.47023 224.41866 275.87718 250.58167 317.2841 276.7447 358.691 296.36695 400.09797 309.44847"/>
<g clip-path="url(#clip_34)">
<path transform="matrix(1,0,0,-1,68.8425,284.57417)" d="M-3-3H3V3H-3Z" fill="#4daf4a"/>
<path transform="matrix(1,0,0,-1,68.8425,284.57417)" stroke-width="1" stroke-linecap="butt" stroke-miterlimit="10" stroke-linejoin="miter" fill="none" stroke="#4daf4a" d="M-3-3H3V3H-3Z"/>
</g>
<g clip-path="url(#clip_35)">
<path transform="matrix(1,0,0,-1,110.249439,271.49266)" d="M-3-3H3V3H-3Z" fill="#4daf4a"/>
<path transform="matrix(1,0,0,-1,110.249439,271.49266)" stroke-width="1" stroke-linecap="butt" stroke-miterlimit="10" stroke-linejoin="miter" fill="none" stroke="#4daf4a" d="M-3-3H3V3H-3Z"/>
</g>
<g clip-path="url(#clip_36)">
<path transform="matrix(1,0,0,-1,151.65637,238.78888)" d="M-3-3H3V3H-3Z" fill="#4daf4a"/>
<path transform="matrix(1,0,0,-1,151.65637,238.78888)" stroke-width="1" stroke-linecap="butt" stroke-miterlimit="10" stroke-linejoin="miter" fill="none" stroke="#4daf4a" d="M-3-3H3V3H-3Z"/>
</g>
<g clip-path="url(#clip_37)">
<path transform="matrix(1,0,0,-1,193.06331,199.54436)" d="M-3-3H3V3H-3Z" fill="#4daf4a"/>
<path transform="matrix(1,0,0,-1,193.06331,199.54436)" stroke-width="1" stroke-linecap="butt" stroke-miterlimit="10" stroke-linejoin="miter" fill="none" stroke="#4daf4a" d="M-3-3H3V3H-3Z"/>
</g>
<g clip-path="url(#clip_38)">
<path transform="matrix(1,0,0,-1,234.47025,173.38135)" d="M-3-3H3V3H-3Z" fill="#4daf4a"/>
<path transform="matrix(1,0,0,-1,234.47025,173.38135)" stroke-width="1" stroke-linecap="butt" stroke-miterlimit="10" stroke-linejoin="miter" fill="none" stroke="#4daf4a" d="M-3-3H3V3H-3Z"/>
</g>
<g clip-path="url(#clip_39)">
<path transform="matrix(1,0,0,-1,275.87718,147.21834)" d="M-3-3H3V3H-3Z" fill="#4daf4a"/>
<path transform="matrix(1,0,0,-1,275.87718,147.21834)" stroke-width="1" stroke-linecap="butt" stroke-miterlimit="10" stroke-linejoin="miter" fill="none" stroke="#4daf4a" d="M-3-3H3V3H-3Z"/>
</g>
<g clip-path="url(#clip_40)">
<path transform="matrix(1,0,0,-1,317.2841,121.05533)" d="M-3-3H3V3H-3Z" fill="#4daf4a"/>
<path transform="matrix(1,0,0,-1,317.2841,121.05533)" stroke-width="1" stroke-linecap="butt" stroke-miterlimit="10" stroke-linejoin="miter" fill="none" stroke="#4daf4a" d="M-3-3H3V3H-3Z"/>
</g>
<g clip-path="url(#clip_41)">
<path transform="matrix(1,0,0,-1,358.691,101.43307)" d="M-3-3H3V3H-3Z" fill="#4daf4a"/>
<path transform="matrix(1,0,0,-1,358.691,101.43307)" stroke-width="1" stroke-linecap="butt" stroke-miterlimit="10" stroke-linejoin="miter" fill="none" stroke="#4daf4a" d="M-3-3H3V3H-3Z"/>
</g>
<g clip-path="url(#clip_42)">
<path transform="matrix(1,0,0,-1,400.09794,88.35156)" d="M-3-3H3V3H-3Z" fill="#4daf4a"/>
<path transform="matrix(1,0,0,-1,400.09794,88.35156)" stroke-width="1" stroke-linecap="butt" stroke-miterlimit="10" stroke-linejoin="miter" fill="none" stroke="#4daf4a" d="M-3-3H3V3H-3Z"/>
</g>
</g>
<g clip-path="url(#clip_43)">
<path transform="matrix(1,0,0,-1,0,397.8)" stroke-width="1.5" stroke-linecap="square" stroke-linejoin="round" fill="none" stroke="#984ea3" d="M68.8425 198.25563 110.24943 178.63338 151.65636 191.71489 193.0633 217.8779 234.47023 244.04091 275.87718 270.20393 317.2841 289.82618 358.691 309.44847 400.09797 322.52995"/>
<g clip-path="url(#clip_44)">
<path transform="matrix(1,0,0,-1,68.8425,199.54436)" d="M0 3-2.85317 .927051-1.763356-2.427051H1.763356L2.85317 .927051Z" fill="#984ea3"/>
<path transform="matrix(1,0,0,-1,68.8425,199.54436)" stroke-width="1" stroke-linecap="butt" stroke-miterlimit="10" stroke-linejoin="miter" fill="none" stroke="#984ea3" d="M0 3-2.85317 .927051-1.763356-2.427051H1.763356L2.85317 .927051Z"/>
</g>
<g clip-path="url(#clip_45)">
<path transform="matrix(1,0,0,-1,110.249439,219.16661)" d="M0 3-2.85317 .927051-1.763356-2.427051H1.763356L2.85317 .927051Z" fill="#984ea3"/>
<path transform="matrix(1,0,0,-1,110.249439,219.16661)" stroke-width="1" stroke-linecap="butt" stroke-miterlimit="10" stroke-linejoin="miter" fill="none" stroke="#984ea3" d="M0 3-2.85317 .927051-1.763356-2.427051H1.763356L2.85317 .927051Z"/>
</g>
<g clip-path="url(#clip_46)">
<path transform="matrix(1,0,0,-1,151.65637,206.0851)" d="M0 3-2.85317 .927051-1.763356-2.427051H1.763356L2.85317 .927051Z" fill="#984ea3"/>
<path transform="matrix(1,0,0,-1,151.65637,206.0851)" stroke-width="1" stroke-linecap="butt" stroke-miterlimit="10" stroke-linejoin="miter" fill="none" stroke="#984ea3" d="M0 3-2.85317 .927051-1.763356-2.427051H1.763356L2.85317 .927051Z"/>
</g>
<g clip-path="url(#clip_47)">
<path transform="matrix(1,0,0,-1,193.06331,179.92209)" d="M0 3-2.85317 .927051-1.763356-2.427051H1.763356L2.85317 .927051Z" fill="#984ea3"/>
<path transform="matrix(1,0,0,-1,193.06331,179.92209)" stroke-width="1" stroke-linecap="butt" stroke-miterlimit="10" stroke-linejoin="miter" fill="none" stroke="#984ea3" d="M0 3-2.85317 .927051-1.763356-2.427051H1.763356L2.85317 .927051Z"/>
</g>
<g clip-path="url(#clip_48)">
<path transform="matrix(1,0,0,-1,234.47025,153.75908)" d="M0 3-2.85317 .927051-1.763356-2.427051H1.763356L2.85317 .927051Z" fill="#984ea3"/>
<path transform="matrix(1,0,0,-1,234.47025,153.75908)" stroke-width="1" stroke-linecap="butt" stroke-miterlimit="10" stroke-linejoin="miter" fill="none" stroke="#984ea3" d="M0 3-2.85317 .927051-1.763356-2.427051H1.763356L2.85317 .927051Z"/>
</g>
<g clip-path="url(#clip_49)">
<path transform="matrix(1,0,0,-1,275.87718,127.59607)" d="M0 3-2.85317 .927051-1.763356-2.427051H1.763356L2.85317 .927051Z" fill="#984ea3"/>
<path transform="matrix(1,0,0,-1,275.87718,127.59607)" stroke-width="1" stroke-linecap="butt" stroke-miterlimit="10" stroke-linejoin="miter" fill="none" stroke="#984ea3" d="M0 3-2.85317 .927051-1.763356-2.427051H1.763356L2.85317 .927051Z"/>
</g>
<g clip-path="url(#clip_50)">
<path transform="matrix(1,0,0,-1,317.2841,107.97381)" d="M0 3-2.85317 .927051-1.763356-2.427051H1.763356L2.85317 .927051Z" fill="#984ea3"/>
<path transform="matrix(1,0,0,-1,317.2841,107.97381)" stroke-width="1" stroke-linecap="butt" stroke-miterlimit="10" stroke-linejoin="miter" fill="none" stroke="#984ea3" d="M0 3-2.85317 .927051-1.763356-2.427051H1.763356L2.85317 .927051Z"/>
</g>
<g clip-path="url(#clip_51)">
<path transform="matrix(1,0,0,-1,358.691,88.35155)" d="M0 3-2.85317 .927051-1.763356-2.427051H1.763356L2.85317 .927051Z" fill="#984ea3"/>
<path transform="matrix(1,0,0,-1,358.691,88.35155)" stroke-width="1" stroke-linecap="butt" stroke-miterlimit="10" stroke-linejoin="miter" fill="none" stroke="#984ea3" d="M0 3-2.85317 .927051-1.763356-2.427051H1.763356L2.85317 .927051Z"/>
</g>
<g clip-path="url(#clip_52)">
<path transform="matrix(1,0,0,-1,400.09794,75.27004)" d="M0 3-2.85317 .927051-1.763356-2.427051H1.763356L2.85317 .927051Z" fill="#984ea3"/>
<path transform="matrix(1,0,0,-1,400.09794,75.27004)" stroke-width="1" stroke-linecap="butt" stroke-miterlimit="10" stroke-linejoin="miter" fill="none" stroke="#984ea3" d="M0 3-2.85317 .927051-1.763356-2.427051H1.763356L2.85317 .927051Z"/>
</g>
</g>
<g clip-path="url(#clip_53)">
<path transform="matrix(1,0,0,-1,0,397.8)" stroke-width="1.5" stroke-linecap="square" stroke-linejoin="round" fill="none" stroke="#ff7f00" d="M68.8425 296.36695 110.24943 244.04091H151.65636L193.0633 250.58167 234.47023 270.20393 275.87718 289.82618 317.2841 309.44847 358.691 322.52995 400.09797 335.61146"/>
<g clip-path="url(#clip_54)">
<path transform="matrix(1,0,0,-1,68.8425,101.433048)" d="M0-4.242641 4.242641 0 0 4.242641-4.242641 0Z" fill="#ff7f00"/>
<path transform="matrix(1,0,0,-1,68.8425,101.433048)" stroke-width="1" stroke-linecap="butt" stroke-miterlimit="10" stroke-linejoin="miter" fill="none" stroke="#ff7f00" d="M0-4.242641 4.242641 0 0 4.242641-4.242641 0Z"/>
</g>
<g clip-path="url(#clip_55)">
<path transform="matrix(1,0,0,-1,110.249439,153.75907)" d="M0-4.242641 4.242641 0 0 4.242641-4.242641 0Z" fill="#ff7f00"/>
<path transform="matrix(1,0,0,-1,110.249439,153.75907)" stroke-width="1" stroke-linecap="butt" stroke-miterlimit="10" stroke-linejoin="miter" fill="none" stroke="#ff7f00" d="M0-4.242641 4.242641 0 0 4.242641-4.242641 0Z"/>
</g>
<g clip-path="url(#clip_56)">
<path transform="matrix(1,0,0,-1,151.65637,153.75907)" d="M0-4.242641 4.242641 0 0 4.242641-4.242641 0Z" fill="#ff7f00"/>
<path transform="matrix(1,0,0,-1,151.65637,153.75907)" stroke-width="1" stroke-linecap="butt" stroke-miterlimit="10" stroke-linejoin="miter" fill="none" stroke="#ff7f00" d="M0-4.242641 4.242641 0 0 4.242641-4.242641 0Z"/>
</g>
<g clip-path="url(#clip_57)">
<path transform="matrix(1,0,0,-1,193.06331,147.2183)" d="M0-4.242641 4.242641 0 0 4.242641-4.242641 0Z" fill="#ff7f00"/>
<path transform="matrix(1,0,0,-1,193.06331,147.2183)" stroke-width="1" stroke-linecap="butt" stroke-miterlimit="10" stroke-linejoin="miter" fill="none" stroke="#ff7f00" d="M0-4.242641 4.242641 0 0 4.242641-4.242641 0Z"/>
</g>
<g clip-path="url(#clip_58)">
<path transform="matrix(1,0,0,-1,234.47025,127.59605)" d="M0-4.242641 4.242641 0 0 4.242641-4.242641 0Z" fill="#ff7f00"/>
<path transform="matrix(1,0,0,-1,234.47025,127.59605)" stroke-width="1" stroke-linecap="butt" stroke-miterlimit="10" stroke-linejoin="miter" fill="none" stroke="#ff7f00" d="M0-4.242641 4.242641 0 0 4.242641-4.242641 0Z"/>
</g>
<g clip-path="url(#clip_59)">
<path transform="matrix(1,0,0,-1,275.87718,107.973789)" d="M0-4.242641 4.242641 0 0 4.242641-4.242641 0Z" fill="#ff7f00"/>
<path transform="matrix(1,0,0,-1,275.87718,107.973789)" stroke-width="1" stroke-linecap="butt" stroke-miterlimit="10" stroke-linejoin="miter" fill="none" stroke="#ff7f00" d="M0-4.242641 4.242641 0 0 4.242641-4.242641 0Z"/>
</g>
<g clip-path="url(#clip_60)">
<path transform="matrix(1,0,0,-1,317.2841,88.351528)" d="M0-4.242641 4.242641 0 0 4.242641-4.242641 0Z" fill="#ff7f00"/>
<path transform="matrix(1,0,0,-1,317.2841,88.351528)" stroke-width="1" stroke-linecap="butt" stroke-miterlimit="10" stroke-linejoin="miter" fill="none" stroke="#ff7f00" d="M0-4.242641 4.242641 0 0 4.242641-4.242641 0Z"/>
</g>
<g clip-path="url(#clip_61)">
<path transform="matrix(1,0,0,-1,358.691,75.27002)" d="M0-4.242641 4.242641 0 0 4.242641-4.242641 0Z" fill="#ff7f00"/>
<path transform="matrix(1,0,0,-1,358.691,75.27002)" stroke-width="1" stroke-linecap="butt" stroke-miterlimit="10" stroke-linejoin="miter" fill="none" stroke="#ff7f00" d="M0-4.242641 4.242641 0 0 4.242641-4.242641 0Z"/>
</g>
<g clip-path="url(#clip_62)">
<path transform="matrix(1,0,0,-1,400.09794,62.188516)" d="M0-4.242641 4.242641 0 0 4.242641-4.242641 0Z" fill="#ff7f00"/>
<path transform="matrix(1,0,0,-1,400.09794,62.188516)" stroke-width="1" stroke-linecap="butt" stroke-miterlimit="10" stroke-linejoin="miter" fill="none" stroke="#ff7f00" d="M0-4.242641 4.242641 0 0 4.242641-4.242641 0Z"/>
</g>
</g>
<path transform="matrix(1,0,0,-1,0,397.8)" stroke-width=".8" stroke-linecap="square" stroke-miterlimit="10" stroke-linejoin="miter" fill="none" stroke="#04151f" d="M52.279726 54.03203V349.02"/>
<path transform="matrix(1,0,0,-1,0,397.8)" stroke-width=".8" stroke-linecap="square" stroke-miterlimit="10" stroke-linejoin="miter" fill="none" stroke="#04151f" d="M416.66075 54.03203V349.02"/>
<path transform="matrix(1,0,0,-1,0,397.8)" stroke-width=".8" stroke-linecap="square" stroke-miterlimit="10" stroke-linejoin="miter" fill="none" stroke="#04151f" d="M52.279726 54.03203H416.66075"/>
<path transform="matrix(1,0,0,-1,0,397.8)" stroke-width=".8" stroke-linecap="square" stroke-miterlimit="10" stroke-linejoin="miter" fill="none" stroke="#04151f" d="M52.279726 349.02H416.66075"/>
<g clip-path="url(#clip_63)">
<path transform="matrix(1,0,0,-1,0,397.8)" stroke-width=".5" stroke-linecap="butt" stroke-dasharray="1.85,.8" stroke-linejoin="round" fill="none" stroke="#d2d0d0" d="M520.10916 54.03203V349.02"/>
</g>
<path transform="matrix(1,0,0,-1,0,397.8)" d="M520.10916 54.03203V50.53203"/>
<path transform="matrix(1,0,0,-1,0,397.8)" stroke-width=".8" stroke-linecap="butt" stroke-linejoin="round" fill="none" stroke="#000000" d="M520.10916 54.03203V50.53203"/>
<text xml:space="preserve" transform="matrix(1 0 -0 1 0 397.8)" font-size="17.932753" font-family="Computer Modern"><tspan y="-34.57873" x="507.7727 515.9859 524.1991">500</tspan></text>
<g clip-path="url(#clip_64)">
<path transform="matrix(1,0,0,-1,0,397.8)" stroke-width=".5" stroke-linecap="butt" stroke-dasharray="1.85,.8" stroke-linejoin="round" fill="none" stroke="#d2d0d0" d="M602.923 54.03203V349.02"/>
</g>
<path transform="matrix(1,0,0,-1,0,397.8)" d="M602.923 54.03203V50.53203"/>
<path transform="matrix(1,0,0,-1,0,397.8)" stroke-width=".8" stroke-linecap="butt" stroke-linejoin="round" fill="none" stroke="#000000" d="M602.923 54.03203V50.53203"/>
<text xml:space="preserve" transform="matrix(1 0 -0 1 0 397.8)" font-size="17.932753" font-family="Computer Modern"><tspan y="-34.57873" x="586.4744 594.6876 602.9008 611.114">1000</tspan></text>
<g clip-path="url(#clip_65)">
<path transform="matrix(1,0,0,-1,0,397.8)" stroke-width=".5" stroke-linecap="butt" stroke-dasharray="1.85,.8" stroke-linejoin="round" fill="none" stroke="#d2d0d0" d="M685.7369 54.03203V349.02"/>
</g>
<path transform="matrix(1,0,0,-1,0,397.8)" d="M685.7369 54.03203V50.53203"/>
<path transform="matrix(1,0,0,-1,0,397.8)" stroke-width=".8" stroke-linecap="butt" stroke-linejoin="round" fill="none" stroke="#000000" d="M685.7369 54.03203V50.53203"/>
<text xml:space="preserve" transform="matrix(1 0 -0 1 0 397.8)" font-size="17.932753" font-family="Computer Modern"><tspan y="-34.57873" x="669.28829 677.50149 685.71469 693.92788">1500</tspan></text>
<g clip-path="url(#clip_66)">
<path transform="matrix(1,0,0,-1,0,397.8)" stroke-width=".5" stroke-linecap="butt" stroke-dasharray="1.85,.8" stroke-linejoin="round" fill="none" stroke="#d2d0d0" d="M768.5507 54.03203V349.02"/>
</g>
<path transform="matrix(1,0,0,-1,0,397.8)" d="M768.5507 54.03203V50.53203"/>
<path transform="matrix(1,0,0,-1,0,397.8)" stroke-width=".8" stroke-linecap="butt" stroke-linejoin="round" fill="none" stroke="#000000" d="M768.5507 54.03203V50.53203"/>
<text xml:space="preserve" transform="matrix(1 0 -0 1 0 397.8)" font-size="17.932753" font-family="Computer Modern"><tspan y="-34.57873" x="752.1022 760.31539 768.52859 776.74179">2000</tspan></text>
<g clip-path="url(#clip_67)">
<path transform="matrix(1,0,0,-1,0,397.8)" stroke-width=".5" stroke-linecap="butt" stroke-dasharray="1.85,.8" stroke-linejoin="round" fill="none" stroke="#d2d0d0" d="M851.36459 54.03203V349.02"/>
</g>
<path transform="matrix(1,0,0,-1,0,397.8)" d="M851.36459 54.03203V50.53203"/>
<path transform="matrix(1,0,0,-1,0,397.8)" stroke-width=".8" stroke-linecap="butt" stroke-linejoin="round" fill="none" stroke="#000000" d="M851.36459 54.03203V50.53203"/>
<text xml:space="preserve" transform="matrix(1 0 -0 1 0 397.8)" font-size="17.932753" font-family="Computer Modern"><tspan y="-34.57873" x="834.916 843.1292 851.3424 859.5556">2500</tspan></text>
<text xml:space="preserve" transform="matrix(1 0 -0 1 0 397.8)" font-size="19.92528" font-family="Computer Modern"><tspan y="-12.164643" x="585.9339 596.09579 605.22158 612.2751 620.36477 625.3261 630.2875 635.24887 642.30239 656.4072 665.533 670.4944 677.5479 682.5093 689.5628 699.7247 709.88656 717.9762">Satellitealtitude,</tspan></text>
<text xml:space="preserve" transform="matrix(1 0 -0 1 0 397.8)" font-size="19.92528" font-family="Computer Modern" font-style="italic"><tspan y="-12.164643" x="729.1389">h</tspan></text>
<text xml:space="preserve" transform="matrix(1 0 -0 1 0 397.8)" font-size="19.92528" font-family="Computer Modern"><tspan y="-12.164643" x="746.385 753.43856 763.0824 778.4647">(km)</tspan></text>
<g clip-path="url(#clip_68)">
<path transform="matrix(1,0,0,-1,0,397.8)" stroke-width=".5" stroke-linecap="butt" stroke-dasharray="1.85,.8" stroke-linejoin="round" fill="none" stroke="#d2d0d0" d="M503.54637 80.75485H867.92739"/>
</g>
<path transform="matrix(1,0,0,-1,0,397.8)" d="M503.54637 80.75485H500.04637"/>
<path transform="matrix(1,0,0,-1,0,397.8)" stroke-width=".8" stroke-linecap="butt" stroke-linejoin="round" fill="none" stroke="#000000" d="M503.54637 80.75485H500.04637"/>
<text xml:space="preserve" transform="matrix(1 0 -0 1 0 397.8)" font-size="17.932753" font-family="Computer Modern"><tspan y="-74.5282" x="464.1888 472.402">10</tspan></text>
<text xml:space="preserve" transform="matrix(1 0 -0 1 0 397.8)" font-size="12.552872" font-family="Computer Modern" font-style="italic"><tspan y="-81.03585" x="480.6374">&#x2212;</tspan></text>
<text xml:space="preserve" transform="matrix(1 0 -0 1 0 397.8)" font-size="12.552872" font-family="Computer Modern"><tspan y="-81.03585" x="490.40077">4</tspan></text>
<g clip-path="url(#clip_69)">
<path transform="matrix(1,0,0,-1,0,397.8)" stroke-width=".5" stroke-linecap="butt" stroke-dasharray="1.85,.8" stroke-linejoin="round" fill="none" stroke="#d2d0d0" d="M503.54637 181.44783H867.92739"/>
</g>
<path transform="matrix(1,0,0,-1,0,397.8)" d="M503.54637 181.44783H500.04637"/>
<path transform="matrix(1,0,0,-1,0,397.8)" stroke-width=".8" stroke-linecap="butt" stroke-linejoin="round" fill="none" stroke="#000000" d="M503.54637 181.44783H500.04637"/>
<text xml:space="preserve" transform="matrix(1 0 -0 1 0 397.8)" font-size="17.932753" font-family="Computer Modern"><tspan y="-175.22118" x="464.1888 472.402">10</tspan></text>
<text xml:space="preserve" transform="matrix(1 0 -0 1 0 397.8)" font-size="12.552872" font-family="Computer Modern" font-style="italic"><tspan y="-181.72884" x="480.6374">&#x2212;</tspan></text>
<text xml:space="preserve" transform="matrix(1 0 -0 1 0 397.8)" font-size="12.552872" font-family="Computer Modern"><tspan y="-181.72884" x="490.40077">3</tspan></text>
<g clip-path="url(#clip_70)">
<path transform="matrix(1,0,0,-1,0,397.8)" stroke-width=".5" stroke-linecap="butt" stroke-dasharray="1.85,.8" stroke-linejoin="round" fill="none" stroke="#d2d0d0" d="M503.54637 282.1408H867.92739"/>
</g>
<path transform="matrix(1,0,0,-1,0,397.8)" d="M503.54637 282.1408H500.04637"/>
<path transform="matrix(1,0,0,-1,0,397.8)" stroke-width=".8" stroke-linecap="butt" stroke-linejoin="round" fill="none" stroke="#000000" d="M503.54637 282.1408H500.04637"/>
<text xml:space="preserve" transform="matrix(1 0 -0 1 0 397.8)" font-size="17.932753" font-family="Computer Modern"><tspan y="-275.91416" x="464.1888 472.402">10</tspan></text>
<text xml:space="preserve" transform="matrix(1 0 -0 1 0 397.8)" font-size="12.552872" font-family="Computer Modern" font-style="italic"><tspan y="-282.4218" x="480.6374">&#x2212;</tspan></text>
<text xml:space="preserve" transform="matrix(1 0 -0 1 0 397.8)" font-size="12.552872" font-family="Computer Modern"><tspan y="-282.4218" x="490.40077">2</tspan></text>
<g clip-path="url(#clip_71)">
<path transform="matrix(1,0,0,-1,0,397.8)" stroke-width=".5" stroke-linecap="butt" stroke-dasharray="1.85,.8" stroke-linejoin="round" fill="none" stroke="#d2d0d0" d="M503.54637 58.416238H867.92739"/>
</g>
<path transform="matrix(1,0,0,-1,0,397.8)" d="M503.54637 58.416238H501.54637"/>
<path transform="matrix(1,0,0,-1,0,397.8)" stroke-width=".6" stroke-linecap="butt" stroke-linejoin="round" fill="none" stroke="#000000" d="M503.54637 58.416238H501.54637"/>
<g clip-path="url(#clip_72)">
<path transform="matrix(1,0,0,-1,0,397.8)" stroke-width=".5" stroke-linecap="butt" stroke-dasharray="1.85,.8" stroke-linejoin="round" fill="none" stroke="#d2d0d0" d="M503.54637 65.15731H867.92739"/>
</g>
<path transform="matrix(1,0,0,-1,0,397.8)" d="M503.54637 65.15731H501.54637"/>
<path transform="matrix(1,0,0,-1,0,397.8)" stroke-width=".6" stroke-linecap="butt" stroke-linejoin="round" fill="none" stroke="#000000" d="M503.54637 65.15731H501.54637"/>
<g clip-path="url(#clip_73)">
<path transform="matrix(1,0,0,-1,0,397.8)" stroke-width=".5" stroke-linecap="butt" stroke-dasharray="1.85,.8" stroke-linejoin="round" fill="none" stroke="#d2d0d0" d="M503.54637 70.99669H867.92739"/>
</g>
<path transform="matrix(1,0,0,-1,0,397.8)" d="M503.54637 70.99669H501.54637"/>
<path transform="matrix(1,0,0,-1,0,397.8)" stroke-width=".6" stroke-linecap="butt" stroke-linejoin="round" fill="none" stroke="#000000" d="M503.54637 70.99669H501.54637"/>
<g clip-path="url(#clip_74)">
<path transform="matrix(1,0,0,-1,0,397.8)" stroke-width=".5" stroke-linecap="butt" stroke-dasharray="1.85,.8" stroke-linejoin="round" fill="none" stroke="#d2d0d0" d="M503.54637 76.14739H867.92739"/>
</g>
<path transform="matrix(1,0,0,-1,0,397.8)" d="M503.54637 76.14739H501.54637"/>
<path transform="matrix(1,0,0,-1,0,397.8)" stroke-width=".6" stroke-linecap="butt" stroke-linejoin="round" fill="none" stroke="#000000" d="M503.54637 76.14739H501.54637"/>
<g clip-path="url(#clip_75)">
<path transform="matrix(1,0,0,-1,0,397.8)" stroke-width=".5" stroke-linecap="butt" stroke-dasharray="1.85,.8" stroke-linejoin="round" fill="none" stroke="#d2d0d0" d="M503.54637 111.06645H867.92739"/>
</g>
<path transform="matrix(1,0,0,-1,0,397.8)" d="M503.54637 111.06645H501.54637"/>
<path transform="matrix(1,0,0,-1,0,397.8)" stroke-width=".6" stroke-linecap="butt" stroke-linejoin="round" fill="none" stroke="#000000" d="M503.54637 111.06645H501.54637"/>
<g clip-path="url(#clip_76)">
<path transform="matrix(1,0,0,-1,0,397.8)" stroke-width=".5" stroke-linecap="butt" stroke-dasharray="1.85,.8" stroke-linejoin="round" fill="none" stroke="#d2d0d0" d="M503.54637 128.7976H867.92739"/>
</g>
<path transform="matrix(1,0,0,-1,0,397.8)" d="M503.54637 128.7976H501.54637"/>
<path transform="matrix(1,0,0,-1,0,397.8)" stroke-width=".6" stroke-linecap="butt" stroke-linejoin="round" fill="none" stroke="#000000" d="M503.54637 128.7976H501.54637"/>
<g clip-path="url(#clip_77)">
<path transform="matrix(1,0,0,-1,0,397.8)" stroke-width=".5" stroke-linecap="butt" stroke-dasharray="1.85,.8" stroke-linejoin="round" fill="none" stroke="#d2d0d0" d="M503.54637 141.37807H867.92739"/>
</g>
<path transform="matrix(1,0,0,-1,0,397.8)" d="M503.54637 141.37807H501.54637"/>
<path transform="matrix(1,0,0,-1,0,397.8)" stroke-width=".6" stroke-linecap="butt" stroke-linejoin="round" fill="none" stroke="#000000" d="M503.54637 141.37807H501.54637"/>
<g clip-path="url(#clip_78)">
<path transform="matrix(1,0,0,-1,0,397.8)" stroke-width=".5" stroke-linecap="butt" stroke-dasharray="1.85,.8" stroke-linejoin="round" fill="none" stroke="#d2d0d0" d="M503.54637 151.13622H867.92739"/>
</g>
<path transform="matrix(1,0,0,-1,0,397.8)" d="M503.54637 151.13622H501.54637"/>
<path transform="matrix(1,0,0,-1,0,397.8)" stroke-width=".6" stroke-linecap="butt" stroke-linejoin="round" fill="none" stroke="#000000" d="M503.54637 151.13622H501.54637"/>
<g clip-path="url(#clip_79)">
<path transform="matrix(1,0,0,-1,0,397.8)" stroke-width=".5" stroke-linecap="butt" stroke-dasharray="1.85,.8" stroke-linejoin="round" fill="none" stroke="#d2d0d0" d="M503.54637 159.1092H867.92739"/>
</g>
<path transform="matrix(1,0,0,-1,0,397.8)" d="M503.54637 159.1092H501.54637"/>
<path transform="matrix(1,0,0,-1,0,397.8)" stroke-width=".6" stroke-linecap="butt" stroke-linejoin="round" fill="none" stroke="#000000" d="M503.54637 159.1092H501.54637"/>
<g clip-path="url(#clip_80)">
<path transform="matrix(1,0,0,-1,0,397.8)" stroke-width=".5" stroke-linecap="butt" stroke-dasharray="1.85,.8" stroke-linejoin="round" fill="none" stroke="#d2d0d0" d="M503.54637 165.85028H867.92739"/>
</g>
<path transform="matrix(1,0,0,-1,0,397.8)" d="M503.54637 165.85028H501.54637"/>
<path transform="matrix(1,0,0,-1,0,397.8)" stroke-width=".6" stroke-linecap="butt" stroke-linejoin="round" fill="none" stroke="#000000" d="M503.54637 165.85028H501.54637"/>
<g clip-path="url(#clip_81)">
<path transform="matrix(1,0,0,-1,0,397.8)" stroke-width=".5" stroke-linecap="butt" stroke-dasharray="1.85,.8" stroke-linejoin="round" fill="none" stroke="#d2d0d0" d="M503.54637 171.68967H867.92739"/>
</g>
<path transform="matrix(1,0,0,-1,0,397.8)" d="M503.54637 171.68967H501.54637"/>
<path transform="matrix(1,0,0,-1,0,397.8)" stroke-width=".6" stroke-linecap="butt" stroke-linejoin="round" fill="none" stroke="#000000" d="M503.54637 171.68967H501.54637"/>
<g clip-path="url(#clip_82)">
<path transform="matrix(1,0,0,-1,0,397.8)" stroke-width=".5" stroke-linecap="butt" stroke-dasharray="1.85,.8" stroke-linejoin="round" fill="none" stroke="#d2d0d0" d="M503.54637 176.84037H867.92739"/>
</g>
<path transform="matrix(1,0,0,-1,0,397.8)" d="M503.54637 176.84037H501.54637"/>
<path transform="matrix(1,0,0,-1,0,397.8)" stroke-width=".6" stroke-linecap="butt" stroke-linejoin="round" fill="none" stroke="#000000" d="M503.54637 176.84037H501.54637"/>
<g clip-path="url(#clip_83)">
<path transform="matrix(1,0,0,-1,0,397.8)" stroke-width=".5" stroke-linecap="butt" stroke-dasharray="1.85,.8" stroke-linejoin="round" fill="none" stroke="#d2d0d0" d="M503.54637 211.75943H867.92739"/>
</g>
<path transform="matrix(1,0,0,-1,0,397.8)" d="M503.54637 211.75943H501.54637"/>
<path transform="matrix(1,0,0,-1,0,397.8)" stroke-width=".6" stroke-linecap="butt" stroke-linejoin="round" fill="none" stroke="#000000" d="M503.54637 211.75943H501.54637"/>
<g clip-path="url(#clip_84)">
<path transform="matrix(1,0,0,-1,0,397.8)" stroke-width=".5" stroke-linecap="butt" stroke-dasharray="1.85,.8" stroke-linejoin="round" fill="none" stroke="#d2d0d0" d="M503.54637 229.49059H867.92739"/>
</g>
<path transform="matrix(1,0,0,-1,0,397.8)" d="M503.54637 229.49059H501.54637"/>
<path transform="matrix(1,0,0,-1,0,397.8)" stroke-width=".6" stroke-linecap="butt" stroke-linejoin="round" fill="none" stroke="#000000" d="M503.54637 229.49059H501.54637"/>
<g clip-path="url(#clip_85)">
<path transform="matrix(1,0,0,-1,0,397.8)" stroke-width=".5" stroke-linecap="butt" stroke-dasharray="1.85,.8" stroke-linejoin="round" fill="none" stroke="#d2d0d0" d="M503.54637 242.07105H867.92739"/>
</g>
<path transform="matrix(1,0,0,-1,0,397.8)" d="M503.54637 242.07105H501.54637"/>
<path transform="matrix(1,0,0,-1,0,397.8)" stroke-width=".6" stroke-linecap="butt" stroke-linejoin="round" fill="none" stroke="#000000" d="M503.54637 242.07105H501.54637"/>
<g clip-path="url(#clip_86)">
<path transform="matrix(1,0,0,-1,0,397.8)" stroke-width=".5" stroke-linecap="butt" stroke-dasharray="1.85,.8" stroke-linejoin="round" fill="none" stroke="#d2d0d0" d="M503.54637 251.8292H867.92739"/>
</g>
<path transform="matrix(1,0,0,-1,0,397.8)" d="M503.54637 251.8292H501.54637"/>
<path transform="matrix(1,0,0,-1,0,397.8)" stroke-width=".6" stroke-linecap="butt" stroke-linejoin="round" fill="none" stroke="#000000" d="M503.54637 251.8292H501.54637"/>
<g clip-path="url(#clip_87)">
<path transform="matrix(1,0,0,-1,0,397.8)" stroke-width=".5" stroke-linecap="butt" stroke-dasharray="1.85,.8" stroke-linejoin="round" fill="none" stroke="#d2d0d0" d="M503.54637 259.8022H867.92739"/>
</g>
<path transform="matrix(1,0,0,-1,0,397.8)" d="M503.54637 259.8022H501.54637"/>
<path transform="matrix(1,0,0,-1,0,397.8)" stroke-width=".6" stroke-linecap="butt" stroke-linejoin="round" fill="none" stroke="#000000" d="M503.54637 259.8022H501.54637"/>
<g clip-path="url(#clip_88)">
<path transform="matrix(1,0,0,-1,0,397.8)" stroke-width=".5" stroke-linecap="butt" stroke-dasharray="1.85,.8" stroke-linejoin="round" fill="none" stroke="#d2d0d0" d="M503.54637 266.54328H867.92739"/>
</g>
<path transform="matrix(1,0,0,-1,0,397.8)" d="M503.54637 266.54328H501.54637"/>
<path transform="matrix(1,0,0,-1,0,397.8)" stroke-width=".6" stroke-linecap="butt" stroke-linejoin="round" fill="none" stroke="#000000" d="M503.54637 266.54328H501.54637"/>
<g clip-path="url(#clip_89)">
<path transform="matrix(1,0,0,-1,0,397.8)" stroke-width=".5" stroke-linecap="butt" stroke-dasharray="1.85,.8" stroke-linejoin="round" fill="none" stroke="#d2d0d0" d="M503.54637 272.38264H867.92739"/>
</g>
<path transform="matrix(1,0,0,-1,0,397.8)" d="M503.54637 272.38264H501.54637"/>
<path transform="matrix(1,0,0,-1,0,397.8)" stroke-width=".6" stroke-linecap="butt" stroke-linejoin="round" fill="none" stroke="#000000" d="M503.54637 272.38264H501.54637"/>
<g clip-path="url(#clip_90)">
<path transform="matrix(1,0,0,-1,0,397.8)" stroke-width=".5" stroke-linecap="butt" stroke-dasharray="1.85,.8" stroke-linejoin="round" fill="none" stroke="#d2d0d0" d="M503.54637 277.53337H867.92739"/>
</g>
<path transform="matrix(1,0,0,-1,0,397.8)" d="M503.54637 277.53337H501.54637"/>
<path transform="matrix(1,0,0,-1,0,397.8)" stroke-width=".6" stroke-linecap="butt" stroke-linejoin="round" fill="none" stroke="#000000" d="M503.54637 277.53337H501.54637"/>
<g clip-path="url(#clip_91)">
<path transform="matrix(1,0,0,-1,0,397.8)" stroke-width=".5" stroke-linecap="butt" stroke-dasharray="1.85,.8" stroke-linejoin="round" fill="none" stroke="#d2d0d0" d="M503.54637 312.45243H867.92739"/>
</g>
<path transform="matrix(1,0,0,-1,0,397.8)" d="M503.54637 312.45243H501.54637"/>
<path transform="matrix(1,0,0,-1,0,397.8)" stroke-width=".6" stroke-linecap="butt" stroke-linejoin="round" fill="none" stroke="#000000" d="M503.54637 312.45243H501.54637"/>
<g clip-path="url(#clip_92)">
<path transform="matrix(1,0,0,-1,0,397.8)" stroke-width=".5" stroke-linecap="butt" stroke-dasharray="1.85,.8" stroke-linejoin="round" fill="none" stroke="#d2d0d0" d="M503.54637 330.18357H867.92739"/>
</g>
<path transform="matrix(1,0,0,-1,0,397.8)" d="M503.54637 330.18357H501.54637"/>
<path transform="matrix(1,0,0,-1,0,397.8)" stroke-width=".6" stroke-linecap="butt" stroke-linejoin="round" fill="none" stroke="#000000" d="M503.54637 330.18357H501.54637"/>
<g clip-path="url(#clip_93)">
<path transform="matrix(1,0,0,-1,0,397.8)" stroke-width=".5" stroke-linecap="butt" stroke-dasharray="1.85,.8" stroke-linejoin="round" fill="none" stroke="#d2d0d0" d="M503.54637 342.764H867.92739"/>
</g>
<path transform="matrix(1,0,0,-1,0,397.8)" d="M503.54637 342.764H501.54637"/>
<path transform="matrix(1,0,0,-1,0,397.8)" stroke-width=".6" stroke-linecap="butt" stroke-linejoin="round" fill="none" stroke="#000000" d="M503.54637 342.764H501.54637"/>
<text xml:space="preserve" transform="matrix(0 -1 1 0 0 397.8)" font-size="19.92528" font-family="Computer Modern"><tspan y="455.22416" x="71.98324 82.145137 90.234798 98.324459 105.378009 113.46767 120.52122 126.51873 135.64208 143.73174 159.39076 166.4443 175.57009 182.62363 196.72849 203.78203 213.94393 218.90532 225.95886 239.12725 249.80962 257.8993 270.96806 278.12123 286.21089 294.30055 303.42634 313.58824 323.75013">Secret-keyrate(bitspersecond)</tspan></text>
<g clip-path="url(#clip_94)">
<path transform="matrix(1,0,0,-1,0,397.8)" stroke-width="1.5" stroke-linecap="square" stroke-linejoin="round" fill="none" stroke="#e41a1c" d="M520.10916 335.61146 561.51608 303.04283 602.923 271.4883 644.32998 242.31421 685.7369 215.60478 727.1438 191.09828 768.5507 168.49112 809.95767 147.52457 851.36459 127.99064"/>
<g clip-path="url(#clip_95)">
<path transform="matrix(1,0,0,-1,520.10916,62.188539)" d="M0 3-3-3H3Z" fill="#e41a1c"/>
<path transform="matrix(1,0,0,-1,520.10916,62.188539)" stroke-width="1" stroke-linecap="butt" stroke-miterlimit="10" stroke-linejoin="miter" fill="none" stroke="#e41a1c" d="M0 3-3-3H3Z"/>
</g>
<g clip-path="url(#clip_96)">
<path transform="matrix(1,0,0,-1,561.51608,94.75719)" d="M0 3-3-3H3Z" fill="#e41a1c"/>
<path transform="matrix(1,0,0,-1,561.51608,94.75719)" stroke-width="1" stroke-linecap="butt" stroke-miterlimit="10" stroke-linejoin="miter" fill="none" stroke="#e41a1c" d="M0 3-3-3H3Z"/>
</g>
<g clip-path="url(#clip_97)">
<path transform="matrix(1,0,0,-1,602.923,126.31169)" d="M0 3-3-3H3Z" fill="#e41a1c"/>
<path transform="matrix(1,0,0,-1,602.923,126.31169)" stroke-width="1" stroke-linecap="butt" stroke-miterlimit="10" stroke-linejoin="miter" fill="none" stroke="#e41a1c" d="M0 3-3-3H3Z"/>
</g>
<g clip-path="url(#clip_98)">
<path transform="matrix(1,0,0,-1,644.3299,155.48578)" d="M0 3-3-3H3Z" fill="#e41a1c"/>
<path transform="matrix(1,0,0,-1,644.3299,155.48578)" stroke-width="1" stroke-linecap="butt" stroke-miterlimit="10" stroke-linejoin="miter" fill="none" stroke="#e41a1c" d="M0 3-3-3H3Z"/>
</g>
<g clip-path="url(#clip_99)">
<path transform="matrix(1,0,0,-1,685.7368,182.19522)" d="M0 3-3-3H3Z" fill="#e41a1c"/>
<path transform="matrix(1,0,0,-1,685.7368,182.19522)" stroke-width="1" stroke-linecap="butt" stroke-miterlimit="10" stroke-linejoin="miter" fill="none" stroke="#e41a1c" d="M0 3-3-3H3Z"/>
</g>
<g clip-path="url(#clip_100)">
<path transform="matrix(1,0,0,-1,727.14376,206.70172)" d="M0 3-3-3H3Z" fill="#e41a1c"/>
<path transform="matrix(1,0,0,-1,727.14376,206.70172)" stroke-width="1" stroke-linecap="butt" stroke-miterlimit="10" stroke-linejoin="miter" fill="none" stroke="#e41a1c" d="M0 3-3-3H3Z"/>
</g>
<g clip-path="url(#clip_101)">
<path transform="matrix(1,0,0,-1,768.55068,229.30889)" d="M0 3-3-3H3Z" fill="#e41a1c"/>
<path transform="matrix(1,0,0,-1,768.55068,229.30889)" stroke-width="1" stroke-linecap="butt" stroke-miterlimit="10" stroke-linejoin="miter" fill="none" stroke="#e41a1c" d="M0 3-3-3H3Z"/>
</g>
<g clip-path="url(#clip_102)">
<path transform="matrix(1,0,0,-1,809.9576,250.27544)" d="M0 3-3-3H3Z" fill="#e41a1c"/>
<path transform="matrix(1,0,0,-1,809.9576,250.27544)" stroke-width="1" stroke-linecap="butt" stroke-miterlimit="10" stroke-linejoin="miter" fill="none" stroke="#e41a1c" d="M0 3-3-3H3Z"/>
</g>
<g clip-path="url(#clip_103)">
<path transform="matrix(1,0,0,-1,851.3645,269.80937)" d="M0 3-3-3H3Z" fill="#e41a1c"/>
<path transform="matrix(1,0,0,-1,851.3645,269.80937)" stroke-width="1" stroke-linecap="butt" stroke-miterlimit="10" stroke-linejoin="miter" fill="none" stroke="#e41a1c" d="M0 3-3-3H3Z"/>
</g>
</g>
<g clip-path="url(#clip_104)">
<path transform="matrix(1,0,0,-1,0,397.8)" stroke-width="1.5" stroke-linecap="square" stroke-linejoin="round" fill="none" stroke="#377eb8" d="M520.10916 289.11567 561.51608 275.86329 602.923 254.2355 644.32998 230.3435 685.7369 206.58762 727.1438 183.8719 768.5507 162.44504 809.95767 142.31153 851.36459 123.399219"/>
<g clip-path="url(#clip_105)">
<path transform="matrix(1,0,0,-1,520.10916,108.684329)" d="M0-3C.795609-3 1.55874-2.683901 2.12132-2.12132 2.683901-1.55874 3-.795609 3 0 3 .795609 2.683901 1.55874 2.12132 2.12132 1.55874 2.683901 .795609 3 0 3-.795609 3-1.55874 2.683901-2.12132 2.12132-2.683901 1.55874-3 .795609-3 0-3-.795609-2.683901-1.55874-2.12132-2.12132-1.55874-2.683901-.795609-3 0-3Z" fill="#377eb8"/>
<path transform="matrix(1,0,0,-1,520.10916,108.684329)" stroke-width="1" stroke-linecap="butt" stroke-linejoin="round" fill="none" stroke="#377eb8" d="M0-3C.795609-3 1.55874-2.683901 2.12132-2.12132 2.683901-1.55874 3-.795609 3 0 3 .795609 2.683901 1.55874 2.12132 2.12132 1.55874 2.683901 .795609 3 0 3-.795609 3-1.55874 2.683901-2.12132 2.12132-2.683901 1.55874-3 .795609-3 0-3-.795609-2.683901-1.55874-2.12132-2.12132-1.55874-2.683901-.795609-3 0-3Z"/>
</g>
<g clip-path="url(#clip_106)">
<path transform="matrix(1,0,0,-1,561.51608,121.93671)" d="M0-3C.795609-3 1.55874-2.683901 2.12132-2.12132 2.683901-1.55874 3-.795609 3 0 3 .795609 2.683901 1.55874 2.12132 2.12132 1.55874 2.683901 .795609 3 0 3-.795609 3-1.55874 2.683901-2.12132 2.12132-2.683901 1.55874-3 .795609-3 0-3-.795609-2.683901-1.55874-2.12132-2.12132-1.55874-2.683901-.795609-3 0-3Z" fill="#377eb8"/>
<path transform="matrix(1,0,0,-1,561.51608,121.93671)" stroke-width="1" stroke-linecap="butt" stroke-linejoin="round" fill="none" stroke="#377eb8" d="M0-3C.795609-3 1.55874-2.683901 2.12132-2.12132 2.683901-1.55874 3-.795609 3 0 3 .795609 2.683901 1.55874 2.12132 2.12132 1.55874 2.683901 .795609 3 0 3-.795609 3-1.55874 2.683901-2.12132 2.12132-2.683901 1.55874-3 .795609-3 0-3-.795609-2.683901-1.55874-2.12132-2.12132-1.55874-2.683901-.795609-3 0-3Z"/>
</g>
<g clip-path="url(#clip_107)">
<path transform="matrix(1,0,0,-1,602.923,143.5645)" d="M0-3C.795609-3 1.55874-2.683901 2.12132-2.12132 2.683901-1.55874 3-.795609 3 0 3 .795609 2.683901 1.55874 2.12132 2.12132 1.55874 2.683901 .795609 3 0 3-.795609 3-1.55874 2.683901-2.12132 2.12132-2.683901 1.55874-3 .795609-3 0-3-.795609-2.683901-1.55874-2.12132-2.12132-1.55874-2.683901-.795609-3 0-3Z" fill="#377eb8"/>
<path transform="matrix(1,0,0,-1,602.923,143.5645)" stroke-width="1" stroke-linecap="butt" stroke-linejoin="round" fill="none" stroke="#377eb8" d="M0-3C.795609-3 1.55874-2.683901 2.12132-2.12132 2.683901-1.55874 3-.795609 3 0 3 .795609 2.683901 1.55874 2.12132 2.12132 1.55874 2.683901 .795609 3 0 3-.795609 3-1.55874 2.683901-2.12132 2.12132-2.683901 1.55874-3 .795609-3 0-3-.795609-2.683901-1.55874-2.12132-2.12132-1.55874-2.683901-.795609-3 0-3Z"/>
</g>
<g clip-path="url(#clip_108)">
<path transform="matrix(1,0,0,-1,644.3299,167.45648)" d="M0-3C.795609-3 1.55874-2.683901 2.12132-2.12132 2.683901-1.55874 3-.795609 3 0 3 .795609 2.683901 1.55874 2.12132 2.12132 1.55874 2.683901 .795609 3 0 3-.795609 3-1.55874 2.683901-2.12132 2.12132-2.683901 1.55874-3 .795609-3 0-3-.795609-2.683901-1.55874-2.12132-2.12132-1.55874-2.683901-.795609-3 0-3Z" fill="#377eb8"/>
<path transform="matrix(1,0,0,-1,644.3299,167.45648)" stroke-width="1" stroke-linecap="butt" stroke-linejoin="round" fill="none" stroke="#377eb8" d="M0-3C.795609-3 1.55874-2.683901 2.12132-2.12132 2.683901-1.55874 3-.795609 3 0 3 .795609 2.683901 1.55874 2.12132 2.12132 1.55874 2.683901 .795609 3 0 3-.795609 3-1.55874 2.683901-2.12132 2.12132-2.683901 1.55874-3 .795609-3 0-3-.795609-2.683901-1.55874-2.12132-2.12132-1.55874-2.683901-.795609-3 0-3Z"/>
</g>
<g clip-path="url(#clip_109)">
<path transform="matrix(1,0,0,-1,685.7368,191.21237)" d="M0-3C.795609-3 1.55874-2.683901 2.12132-2.12132 2.683901-1.55874 3-.795609 3 0 3 .795609 2.683901 1.55874 2.12132 2.12132 1.55874 2.683901 .795609 3 0 3-.795609 3-1.55874 2.683901-2.12132 2.12132-2.683901 1.55874-3 .795609-3 0-3-.795609-2.683901-1.55874-2.12132-2.12132-1.55874-2.683901-.795609-3 0-3Z" fill="#377eb8"/>
<path transform="matrix(1,0,0,-1,685.7368,191.21237)" stroke-width="1" stroke-linecap="butt" stroke-linejoin="round" fill="none" stroke="#377eb8" d="M0-3C.795609-3 1.55874-2.683901 2.12132-2.12132 2.683901-1.55874 3-.795609 3 0 3 .795609 2.683901 1.55874 2.12132 2.12132 1.55874 2.683901 .795609 3 0 3-.795609 3-1.55874 2.683901-2.12132 2.12132-2.683901 1.55874-3 .795609-3 0-3-.795609-2.683901-1.55874-2.12132-2.12132-1.55874-2.683901-.795609-3 0-3Z"/>
</g>
<g clip-path="url(#clip_110)">
<path transform="matrix(1,0,0,-1,727.14376,213.92807)" d="M0-3C.795609-3 1.55874-2.683901 2.12132-2.12132 2.683901-1.55874 3-.795609 3 0 3 .795609 2.683901 1.55874 2.12132 2.12132 1.55874 2.683901 .795609 3 0 3-.795609 3-1.55874 2.683901-2.12132 2.12132-2.683901 1.55874-3 .795609-3 0-3-.795609-2.683901-1.55874-2.12132-2.12132-1.55874-2.683901-.795609-3 0-3Z" fill="#377eb8"/>
<path transform="matrix(1,0,0,-1,727.14376,213.92807)" stroke-width="1" stroke-linecap="butt" stroke-linejoin="round" fill="none" stroke="#377eb8" d="M0-3C.795609-3 1.55874-2.683901 2.12132-2.12132 2.683901-1.55874 3-.795609 3 0 3 .795609 2.683901 1.55874 2.12132 2.12132 1.55874 2.683901 .795609 3 0 3-.795609 3-1.55874 2.683901-2.12132 2.12132-2.683901 1.55874-3 .795609-3 0-3-.795609-2.683901-1.55874-2.12132-2.12132-1.55874-2.683901-.795609-3 0-3Z"/>
</g>
<g clip-path="url(#clip_111)">
<path transform="matrix(1,0,0,-1,768.55068,235.35494)" d="M0-3C.795609-3 1.55874-2.683901 2.12132-2.12132 2.683901-1.55874 3-.795609 3 0 3 .795609 2.683901 1.55874 2.12132 2.12132 1.55874 2.683901 .795609 3 0 3-.795609 3-1.55874 2.683901-2.12132 2.12132-2.683901 1.55874-3 .795609-3 0-3-.795609-2.683901-1.55874-2.12132-2.12132-1.55874-2.683901-.795609-3 0-3Z" fill="#377eb8"/>
<path transform="matrix(1,0,0,-1,768.55068,235.35494)" stroke-width="1" stroke-linecap="butt" stroke-linejoin="round" fill="none" stroke="#377eb8" d="M0-3C.795609-3 1.55874-2.683901 2.12132-2.12132 2.683901-1.55874 3-.795609 3 0 3 .795609 2.683901 1.55874 2.12132 2.12132 1.55874 2.683901 .795609 3 0 3-.795609 3-1.55874 2.683901-2.12132 2.12132-2.683901 1.55874-3 .795609-3 0-3-.795609-2.683901-1.55874-2.12132-2.12132-1.55874-2.683901-.795609-3 0-3Z"/>
</g>
<g clip-path="url(#clip_112)">
<path transform="matrix(1,0,0,-1,809.9576,255.48845)" d="M0-3C.795609-3 1.55874-2.683901 2.12132-2.12132 2.683901-1.55874 3-.795609 3 0 3 .795609 2.683901 1.55874 2.12132 2.12132 1.55874 2.683901 .795609 3 0 3-.795609 3-1.55874 2.683901-2.12132 2.12132-2.683901 1.55874-3 .795609-3 0-3-.795609-2.683901-1.55874-2.12132-2.12132-1.55874-2.683901-.795609-3 0-3Z" fill="#377eb8"/>
<path transform="matrix(1,0,0,-1,809.9576,255.48845)" stroke-width="1" stroke-linecap="butt" stroke-linejoin="round" fill="none" stroke="#377eb8" d="M0-3C.795609-3 1.55874-2.683901 2.12132-2.12132 2.683901-1.55874 3-.795609 3 0 3 .795609 2.683901 1.55874 2.12132 2.12132 1.55874 2.683901 .795609 3 0 3-.795609 3-1.55874 2.683901-2.12132 2.12132-2.683901 1.55874-3 .795609-3 0-3-.795609-2.683901-1.55874-2.12132-2.12132-1.55874-2.683901-.795609-3 0-3Z"/>
</g>
<g clip-path="url(#clip_113)">
<path transform="matrix(1,0,0,-1,851.3645,274.40077)" d="M0-3C.795609-3 1.55874-2.683901 2.12132-2.12132 2.683901-1.55874 3-.795609 3 0 3 .795609 2.683901 1.55874 2.12132 2.12132 1.55874 2.683901 .795609 3 0 3-.795609 3-1.55874 2.683901-2.12132 2.12132-2.683901 1.55874-3 .795609-3 0-3-.795609-2.683901-1.55874-2.12132-2.12132-1.55874-2.683901-.795609-3 0-3Z" fill="#377eb8"/>
<path transform="matrix(1,0,0,-1,851.3645,274.40077)" stroke-width="1" stroke-linecap="butt" stroke-linejoin="round" fill="none" stroke="#377eb8" d="M0-3C.795609-3 1.55874-2.683901 2.12132-2.12132 2.683901-1.55874 3-.795609 3 0 3 .795609 2.683901 1.55874 2.12132 2.12132 1.55874 2.683901 .795609 3 0 3-.795609 3-1.55874 2.683901-2.12132 2.12132-2.683901 1.55874-3 .795609-3 0-3-.795609-2.683901-1.55874-2.12132-2.12132-1.55874-2.683901-.795609-3 0-3Z"/>
</g>
</g>
<g clip-path="url(#clip_114)">
<path transform="matrix(1,0,0,-1,0,397.8)" stroke-width="1.5" stroke-linecap="square" stroke-linejoin="round" fill="none" stroke="#4daf4a" d="M520.10916 231.53824 561.51608 237.73516 602.923 227.20339 644.32998 210.2711 685.7369 190.96456 727.1438 171.18537 768.5507 151.79116 809.95767 133.13729 851.36459 115.34541"/>
<g clip-path="url(#clip_115)">
<path transform="matrix(1,0,0,-1,520.10916,166.26175)" d="M-3-3H3V3H-3Z" fill="#4daf4a"/>
<path transform="matrix(1,0,0,-1,520.10916,166.26175)" stroke-width="1" stroke-linecap="butt" stroke-miterlimit="10" stroke-linejoin="miter" fill="none" stroke="#4daf4a" d="M-3-3H3V3H-3Z"/>
</g>
<g clip-path="url(#clip_116)">
<path transform="matrix(1,0,0,-1,561.51608,160.06484)" d="M-3-3H3V3H-3Z" fill="#4daf4a"/>
<path transform="matrix(1,0,0,-1,561.51608,160.06484)" stroke-width="1" stroke-linecap="butt" stroke-miterlimit="10" stroke-linejoin="miter" fill="none" stroke="#4daf4a" d="M-3-3H3V3H-3Z"/>
</g>
<g clip-path="url(#clip_117)">
<path transform="matrix(1,0,0,-1,602.923,170.5966)" d="M-3-3H3V3H-3Z" fill="#4daf4a"/>
<path transform="matrix(1,0,0,-1,602.923,170.5966)" stroke-width="1" stroke-linecap="butt" stroke-miterlimit="10" stroke-linejoin="miter" fill="none" stroke="#4daf4a" d="M-3-3H3V3H-3Z"/>
</g>
<g clip-path="url(#clip_118)">
<path transform="matrix(1,0,0,-1,644.3299,187.52887)" d="M-3-3H3V3H-3Z" fill="#4daf4a"/>
<path transform="matrix(1,0,0,-1,644.3299,187.52887)" stroke-width="1" stroke-linecap="butt" stroke-miterlimit="10" stroke-linejoin="miter" fill="none" stroke="#4daf4a" d="M-3-3H3V3H-3Z"/>
</g>
<g clip-path="url(#clip_119)">
<path transform="matrix(1,0,0,-1,685.7368,206.83544)" d="M-3-3H3V3H-3Z" fill="#4daf4a"/>
<path transform="matrix(1,0,0,-1,685.7368,206.83544)" stroke-width="1" stroke-linecap="butt" stroke-miterlimit="10" stroke-linejoin="miter" fill="none" stroke="#4daf4a" d="M-3-3H3V3H-3Z"/>
</g>
<g clip-path="url(#clip_120)">
<path transform="matrix(1,0,0,-1,727.14376,226.61463)" d="M-3-3H3V3H-3Z" fill="#4daf4a"/>
<path transform="matrix(1,0,0,-1,727.14376,226.61463)" stroke-width="1" stroke-linecap="butt" stroke-miterlimit="10" stroke-linejoin="miter" fill="none" stroke="#4daf4a" d="M-3-3H3V3H-3Z"/>
</g>
<g clip-path="url(#clip_121)">
<path transform="matrix(1,0,0,-1,768.55068,246.00884)" d="M-3-3H3V3H-3Z" fill="#4daf4a"/>
<path transform="matrix(1,0,0,-1,768.55068,246.00884)" stroke-width="1" stroke-linecap="butt" stroke-miterlimit="10" stroke-linejoin="miter" fill="none" stroke="#4daf4a" d="M-3-3H3V3H-3Z"/>
</g>
<g clip-path="url(#clip_122)">
<path transform="matrix(1,0,0,-1,809.9576,264.66273)" d="M-3-3H3V3H-3Z" fill="#4daf4a"/>
<path transform="matrix(1,0,0,-1,809.9576,264.66273)" stroke-width="1" stroke-linecap="butt" stroke-miterlimit="10" stroke-linejoin="miter" fill="none" stroke="#4daf4a" d="M-3-3H3V3H-3Z"/>
</g>
<g clip-path="url(#clip_123)">
<path transform="matrix(1,0,0,-1,851.3645,282.4546)" d="M-3-3H3V3H-3Z" fill="#4daf4a"/>
<path transform="matrix(1,0,0,-1,851.3645,282.4546)" stroke-width="1" stroke-linecap="butt" stroke-miterlimit="10" stroke-linejoin="miter" fill="none" stroke="#4daf4a" d="M-3-3H3V3H-3Z"/>
</g>
</g>
<g clip-path="url(#clip_124)">
<path transform="matrix(1,0,0,-1,0,397.8)" stroke-width="1.5" stroke-linecap="square" stroke-linejoin="round" fill="none" stroke="#984ea3" d="M520.10916 160.9673 561.51608 190.7865 602.923 192.36843 644.32998 183.2919 685.7369 169.37496 727.1438 153.38259 768.5507 136.72449 809.95767 120.11264 851.36459 103.893108"/>
<g clip-path="url(#clip_125)">
<path transform="matrix(1,0,0,-1,520.10916,236.83269)" d="M0 3-2.85317 .927051-1.763356-2.427051H1.763356L2.85317 .927051Z" fill="#984ea3"/>
<path transform="matrix(1,0,0,-1,520.10916,236.83269)" stroke-width="1" stroke-linecap="butt" stroke-miterlimit="10" stroke-linejoin="miter" fill="none" stroke="#984ea3" d="M0 3-2.85317 .927051-1.763356-2.427051H1.763356L2.85317 .927051Z"/>
</g>
<g clip-path="url(#clip_126)">
<path transform="matrix(1,0,0,-1,561.51608,207.01349)" d="M0 3-2.85317 .927051-1.763356-2.427051H1.763356L2.85317 .927051Z" fill="#984ea3"/>
<path transform="matrix(1,0,0,-1,561.51608,207.01349)" stroke-width="1" stroke-linecap="butt" stroke-miterlimit="10" stroke-linejoin="miter" fill="none" stroke="#984ea3" d="M0 3-2.85317 .927051-1.763356-2.427051H1.763356L2.85317 .927051Z"/>
</g>
<g clip-path="url(#clip_127)">
<path transform="matrix(1,0,0,-1,602.923,205.43157)" d="M0 3-2.85317 .927051-1.763356-2.427051H1.763356L2.85317 .927051Z" fill="#984ea3"/>
<path transform="matrix(1,0,0,-1,602.923,205.43157)" stroke-width="1" stroke-linecap="butt" stroke-miterlimit="10" stroke-linejoin="miter" fill="none" stroke="#984ea3" d="M0 3-2.85317 .927051-1.763356-2.427051H1.763356L2.85317 .927051Z"/>
</g>
<g clip-path="url(#clip_128)">
<path transform="matrix(1,0,0,-1,644.3299,214.50809)" d="M0 3-2.85317 .927051-1.763356-2.427051H1.763356L2.85317 .927051Z" fill="#984ea3"/>
<path transform="matrix(1,0,0,-1,644.3299,214.50809)" stroke-width="1" stroke-linecap="butt" stroke-miterlimit="10" stroke-linejoin="miter" fill="none" stroke="#984ea3" d="M0 3-2.85317 .927051-1.763356-2.427051H1.763356L2.85317 .927051Z"/>
</g>
<g clip-path="url(#clip_129)">
<path transform="matrix(1,0,0,-1,685.7368,228.42504)" d="M0 3-2.85317 .927051-1.763356-2.427051H1.763356L2.85317 .927051Z" fill="#984ea3"/>
<path transform="matrix(1,0,0,-1,685.7368,228.42504)" stroke-width="1" stroke-linecap="butt" stroke-miterlimit="10" stroke-linejoin="miter" fill="none" stroke="#984ea3" d="M0 3-2.85317 .927051-1.763356-2.427051H1.763356L2.85317 .927051Z"/>
</g>
<g clip-path="url(#clip_130)">
<path transform="matrix(1,0,0,-1,727.14376,244.4174)" d="M0 3-2.85317 .927051-1.763356-2.427051H1.763356L2.85317 .927051Z" fill="#984ea3"/>
<path transform="matrix(1,0,0,-1,727.14376,244.4174)" stroke-width="1" stroke-linecap="butt" stroke-miterlimit="10" stroke-linejoin="miter" fill="none" stroke="#984ea3" d="M0 3-2.85317 .927051-1.763356-2.427051H1.763356L2.85317 .927051Z"/>
</g>
<g clip-path="url(#clip_131)">
<path transform="matrix(1,0,0,-1,768.55068,261.0755)" d="M0 3-2.85317 .927051-1.763356-2.427051H1.763356L2.85317 .927051Z" fill="#984ea3"/>
<path transform="matrix(1,0,0,-1,768.55068,261.0755)" stroke-width="1" stroke-linecap="butt" stroke-miterlimit="10" stroke-linejoin="miter" fill="none" stroke="#984ea3" d="M0 3-2.85317 .927051-1.763356-2.427051H1.763356L2.85317 .927051Z"/>
</g>
<g clip-path="url(#clip_132)">
<path transform="matrix(1,0,0,-1,809.9576,277.68736)" d="M0 3-2.85317 .927051-1.763356-2.427051H1.763356L2.85317 .927051Z" fill="#984ea3"/>
<path transform="matrix(1,0,0,-1,809.9576,277.68736)" stroke-width="1" stroke-linecap="butt" stroke-miterlimit="10" stroke-linejoin="miter" fill="none" stroke="#984ea3" d="M0 3-2.85317 .927051-1.763356-2.427051H1.763356L2.85317 .927051Z"/>
</g>
<g clip-path="url(#clip_133)">
<path transform="matrix(1,0,0,-1,851.3645,293.9069)" d="M0 3-2.85317 .927051-1.763356-2.427051H1.763356L2.85317 .927051Z" fill="#984ea3"/>
<path transform="matrix(1,0,0,-1,851.3645,293.9069)" stroke-width="1" stroke-linecap="butt" stroke-miterlimit="10" stroke-linejoin="miter" fill="none" stroke="#984ea3" d="M0 3-2.85317 .927051-1.763356-2.427051H1.763356L2.85317 .927051Z"/>
</g>
</g>
<g clip-path="url(#clip_134)">
<path transform="matrix(1,0,0,-1,0,397.8)" stroke-width="1.5" stroke-linecap="square" stroke-linejoin="round" fill="none" stroke="#ff7f00" d="M520.10916 67.440578 561.51608 133.14994 602.923 149.76749 644.32998 149.7601 685.7369 142.10808 727.1438 130.64287 768.5507 117.34611 809.95767 103.29182 851.36459 89.06877"/>
<g clip-path="url(#clip_135)">
<path transform="matrix(1,0,0,-1,520.10916,330.3594)" d="M0-4.242641 4.242641 0 0 4.242641-4.242641 0Z" fill="#ff7f00"/>
<path transform="matrix(1,0,0,-1,520.10916,330.3594)" stroke-width="1" stroke-linecap="butt" stroke-miterlimit="10" stroke-linejoin="miter" fill="none" stroke="#ff7f00" d="M0-4.242641 4.242641 0 0 4.242641-4.242641 0Z"/>
</g>
<g clip-path="url(#clip_136)">
<path transform="matrix(1,0,0,-1,561.51608,264.65007)" d="M0-4.242641 4.242641 0 0 4.242641-4.242641 0Z" fill="#ff7f00"/>
<path transform="matrix(1,0,0,-1,561.51608,264.65007)" stroke-width="1" stroke-linecap="butt" stroke-miterlimit="10" stroke-linejoin="miter" fill="none" stroke="#ff7f00" d="M0-4.242641 4.242641 0 0 4.242641-4.242641 0Z"/>
</g>
<g clip-path="url(#clip_137)">
<path transform="matrix(1,0,0,-1,602.923,248.0325)" d="M0-4.242641 4.242641 0 0 4.242641-4.242641 0Z" fill="#ff7f00"/>
<path transform="matrix(1,0,0,-1,602.923,248.0325)" stroke-width="1" stroke-linecap="butt" stroke-miterlimit="10" stroke-linejoin="miter" fill="none" stroke="#ff7f00" d="M0-4.242641 4.242641 0 0 4.242641-4.242641 0Z"/>
</g>
<g clip-path="url(#clip_138)">
<path transform="matrix(1,0,0,-1,644.3299,248.03987)" d="M0-4.242641 4.242641 0 0 4.242641-4.242641 0Z" fill="#ff7f00"/>
<path transform="matrix(1,0,0,-1,644.3299,248.03987)" stroke-width="1" stroke-linecap="butt" stroke-miterlimit="10" stroke-linejoin="miter" fill="none" stroke="#ff7f00" d="M0-4.242641 4.242641 0 0 4.242641-4.242641 0Z"/>
</g>
<g clip-path="url(#clip_139)">
<path transform="matrix(1,0,0,-1,685.7368,255.6919)" d="M0-4.242641 4.242641 0 0 4.242641-4.242641 0Z" fill="#ff7f00"/>
<path transform="matrix(1,0,0,-1,685.7368,255.6919)" stroke-width="1" stroke-linecap="butt" stroke-miterlimit="10" stroke-linejoin="miter" fill="none" stroke="#ff7f00" d="M0-4.242641 4.242641 0 0 4.242641-4.242641 0Z"/>
</g>
<g clip-path="url(#clip_140)">
<path transform="matrix(1,0,0,-1,727.14376,267.1571)" d="M0-4.242641 4.242641 0 0 4.242641-4.242641 0Z" fill="#ff7f00"/>
<path transform="matrix(1,0,0,-1,727.14376,267.1571)" stroke-width="1" stroke-linecap="butt" stroke-miterlimit="10" stroke-linejoin="miter" fill="none" stroke="#ff7f00" d="M0-4.242641 4.242641 0 0 4.242641-4.242641 0Z"/>
</g>
<g clip-path="url(#clip_141)">
<path transform="matrix(1,0,0,-1,768.55068,280.45387)" d="M0-4.242641 4.242641 0 0 4.242641-4.242641 0Z" fill="#ff7f00"/>
<path transform="matrix(1,0,0,-1,768.55068,280.45387)" stroke-width="1" stroke-linecap="butt" stroke-miterlimit="10" stroke-linejoin="miter" fill="none" stroke="#ff7f00" d="M0-4.242641 4.242641 0 0 4.242641-4.242641 0Z"/>
</g>
<g clip-path="url(#clip_142)">
<path transform="matrix(1,0,0,-1,809.9576,294.50816)" d="M0-4.242641 4.242641 0 0 4.242641-4.242641 0Z" fill="#ff7f00"/>
<path transform="matrix(1,0,0,-1,809.9576,294.50816)" stroke-width="1" stroke-linecap="butt" stroke-miterlimit="10" stroke-linejoin="miter" fill="none" stroke="#ff7f00" d="M0-4.242641 4.242641 0 0 4.242641-4.242641 0Z"/>
</g>
<g clip-path="url(#clip_143)">
<path transform="matrix(1,0,0,-1,851.3645,308.7312)" d="M0-4.242641 4.242641 0 0 4.242641-4.242641 0Z" fill="#ff7f00"/>
<path transform="matrix(1,0,0,-1,851.3645,308.7312)" stroke-width="1" stroke-linecap="butt" stroke-miterlimit="10" stroke-linejoin="miter" fill="none" stroke="#ff7f00" d="M0-4.242641 4.242641 0 0 4.242641-4.242641 0Z"/>
</g>
</g>
<path transform="matrix(1,0,0,-1,0,397.8)" stroke-width=".8" stroke-linecap="square" stroke-miterlimit="10" stroke-linejoin="miter" fill="none" stroke="#04151f" d="M503.54637 54.03203V349.02"/>
<path transform="matrix(1,0,0,-1,0,397.8)" stroke-width=".8" stroke-linecap="square" stroke-miterlimit="10" stroke-linejoin="miter" fill="none" stroke="#04151f" d="M867.92739 54.03203V349.02"/>
<path transform="matrix(1,0,0,-1,0,397.8)" stroke-width=".8" stroke-linecap="square" stroke-miterlimit="10" stroke-linejoin="miter" fill="none" stroke="#04151f" d="M503.54637 54.03203H867.92739"/>
<path transform="matrix(1,0,0,-1,0,397.8)" stroke-width=".8" stroke-linecap="square" stroke-miterlimit="10" stroke-linejoin="miter" fill="none" stroke="#04151f" d="M503.54637 349.02H867.92739"/>
<g>
<path transform="matrix(1,0,0,-1,0,397.8)" d="M10.8 360.11195H868.1648C870.56478 360.11195 871.7648 361.31196 871.7648 363.71195V387C871.7648 389.4 870.56478 390.6 868.1648 390.6H10.8C8.4 390.6 7.2 389.4 7.2 387V363.71195C7.2 361.31196 8.4 360.11195 10.8 360.11195Z" fill="#ffffff" fill-opacity=".8"/>
<path transform="matrix(1,0,0,-1,0,397.8)" stroke-width="1" stroke-linecap="butt" stroke-miterlimit="10" stroke-linejoin="miter" fill="none" stroke="#04151f" stroke-opacity=".8" d="M10.8 360.11195H868.1648C870.56478 360.11195 871.7648 361.31196 871.7648 363.71195V387C871.7648 389.4 870.56478 390.6 868.1648 390.6H10.8C8.4 390.6 7.2 389.4 7.2 387V363.71195C7.2 361.31196 8.4 360.11195 10.8 360.11195Z"/>
</g>
<path transform="matrix(1,0,0,-1,0,397.8)" stroke-width="1.5" stroke-linecap="square" stroke-linejoin="round" fill="none" stroke="#e41a1c" d="M14.4 377.1H27.9 41.4"/>
<path transform="matrix(1,0,0,-1,0,397.8)" d="M27.9 380.1 24.9 374.1H30.9Z" fill="#e41a1c"/>
<path transform="matrix(1,0,0,-1,0,397.8)" stroke-width="1" stroke-linecap="butt" stroke-miterlimit="10" stroke-linejoin="miter" fill="none" stroke="#e41a1c" d="M27.9 380.1 24.9 374.1H30.9Z"/>
<text xml:space="preserve" transform="matrix(1 0 -0 1 0 397.8)" font-size="17.932753" font-family="Computer Modern" font-style="italic"><tspan y="-370.8" x="54.9">d</tspan></text>
<text xml:space="preserve" transform="matrix(1 0 -0 1 0 397.8)" font-size="17.932753" font-family="Computer Modern"><tspan y="-370.8" x="69.005359 87.312679 95.52588 103.73908 111.952289 116.41754 130.04442 138.72388">=500.0km</tspan></text>
<path transform="matrix(1,0,0,-1,0,397.8)" stroke-width="1.5" stroke-linecap="square" stroke-linejoin="round" fill="none" stroke="#377eb8" d="M184.15352 377.1H197.65352 211.15352"/>
<path transform="matrix(1,0,0,-1,0,397.8)" d="M197.65352 374.1C198.44915 374.1 199.21227 374.4161 199.77484 374.97868 200.33744 375.54127 200.65352 376.30439 200.65352 377.1 200.65352 377.8956 200.33744 378.65876 199.77484 379.2213 199.21227 379.7839 198.44915 380.1 197.65352 380.1 196.85791 380.1 196.09479 379.7839 195.53221 379.2213 194.96962 378.65876 194.65352 377.8956 194.65352 377.1 194.65352 376.30439 194.96962 375.54127 195.53221 374.97868 196.09479 374.4161 196.85791 374.1 197.65352 374.1Z" fill="#377eb8"/>
<path transform="matrix(1,0,0,-1,0,397.8)" stroke-width="1" stroke-linecap="butt" stroke-linejoin="round" fill="none" stroke="#377eb8" d="M197.65352 374.1C198.44915 374.1 199.21227 374.4161 199.77484 374.97868 200.33744 375.54127 200.65352 376.30439 200.65352 377.1 200.65352 377.8956 200.33744 378.65876 199.77484 379.2213 199.21227 379.7839 198.44915 380.1 197.65352 380.1 196.85791 380.1 196.09479 379.7839 195.53221 379.2213 194.96962 378.65876 194.65352 377.8956 194.65352 377.1 194.65352 376.30439 194.96962 375.54127 195.53221 374.97868 196.09479 374.4161 196.85791 374.1 197.65352 374.1Z"/>
<text xml:space="preserve" transform="matrix(1 0 -0 1 0 397.8)" font-size="17.932753" font-family="Computer Modern" font-style="italic"><tspan y="-370.8" x="224.65352">d</tspan></text>
<text xml:space="preserve" transform="matrix(1 0 -0 1 0 397.8)" font-size="17.932753" font-family="Computer Modern"><tspan y="-370.8" x="238.75887 257.0662 265.2794 273.49259 281.70579 289.91899 294.38423 308.01109 316.69053">=1000.0km</tspan></text>
<path transform="matrix(1,0,0,-1,0,397.8)" stroke-width="1.5" stroke-linecap="square" stroke-linejoin="round" fill="none" stroke="#4daf4a" d="M362.13136 377.1H375.63136 389.13136"/>
<path transform="matrix(1,0,0,-1,0,397.8)" d="M372.63136 374.1H378.63136V380.1H372.63136Z" fill="#4daf4a"/>
<path transform="matrix(1,0,0,-1,0,397.8)" stroke-width="1" stroke-linecap="butt" stroke-miterlimit="10" stroke-linejoin="miter" fill="none" stroke="#4daf4a" d="M372.63136 374.1H378.63136V380.1H372.63136Z"/>
<text xml:space="preserve" transform="matrix(1 0 -0 1 0 397.8)" font-size="17.932753" font-family="Computer Modern" font-style="italic"><tspan y="-370.8" x="402.63136">d</tspan></text>
<text xml:space="preserve" transform="matrix(1 0 -0 1 0 397.8)" font-size="17.932753" font-family="Computer Modern"><tspan y="-370.8" x="416.7367 435.044 443.2572 451.4704 459.6836 467.8968 472.36207 485.98893 494.66838">=1500.0km</tspan></text>
<path transform="matrix(1,0,0,-1,0,397.8)" stroke-width="1.5" stroke-linecap="square" stroke-linejoin="round" fill="none" stroke="#984ea3" d="M540.10916 377.1H553.60916 567.10916"/>
<path transform="matrix(1,0,0,-1,0,397.8)" d="M553.60916 380.1 550.756 378.02705 551.8458 374.67295H555.3725L556.46237 378.02705Z" fill="#984ea3"/>
<path transform="matrix(1,0,0,-1,0,397.8)" stroke-width="1" stroke-linecap="butt" stroke-miterlimit="10" stroke-linejoin="miter" fill="none" stroke="#984ea3" d="M553.60916 380.1 550.756 378.02705 551.8458 374.67295H555.3725L556.46237 378.02705Z"/>
<text xml:space="preserve" transform="matrix(1 0 -0 1 0 397.8)" font-size="17.932753" font-family="Computer Modern" font-style="italic"><tspan y="-370.8" x="580.60916">d</tspan></text>
<text xml:space="preserve" transform="matrix(1 0 -0 1 0 397.8)" font-size="17.932753" font-family="Computer Modern"><tspan y="-370.8" x="594.7145 613.02188 621.23507 629.44827 637.66146 645.87466 650.3399 663.9668 672.64627">=2000.0km</tspan></text>
<path transform="matrix(1,0,0,-1,0,397.8)" stroke-width="1.5" stroke-linecap="square" stroke-linejoin="round" fill="none" stroke="#ff7f00" d="M718.087 377.1H731.587 745.087"/>
<path transform="matrix(1,0,0,-1,0,397.8)" d="M731.587 372.85737 735.8296 377.1 731.587 381.34266 727.3443 377.1Z" fill="#ff7f00"/>
<path transform="matrix(1,0,0,-1,0,397.8)" stroke-width="1" stroke-linecap="butt" stroke-miterlimit="10" stroke-linejoin="miter" fill="none" stroke="#ff7f00" d="M731.587 372.85737 735.8296 377.1 731.587 381.34266 727.3443 377.1Z"/>
<text xml:space="preserve" transform="matrix(1 0 -0 1 0 397.8)" font-size="17.932753" font-family="Computer Modern" font-style="italic"><tspan y="-370.8" x="758.587">d</tspan></text>
<text xml:space="preserve" transform="matrix(1 0 -0 1 0 397.8)" font-size="17.932753" font-family="Computer Modern"><tspan y="-370.8" x="772.6923 790.9997 799.2129 807.4261 815.6393 823.8525 828.31777 841.94467 850.6241">=2500.0km</tspan></text>
</svg>
